<?xml version="1.0" standalone="no"?>
<!DOCTYPE svg PUBLIC "-//W3C//DTD SVG 1.1//EN" "http://www.w3.org/Graphics/SVG/1.1/DTD/svg11.dtd" >
<svg xmlns="../../../../../external.html?link=http://www.w3.org/2000/svg">
<metadata>Generated by IcoMoon</metadata>
<defs>
<font id="iconsmind" horiz-adv-x="1024">
<font-face units-per-em="1024" ascent="960" descent="-64" />
<missing-glyph horiz-adv-x="1024" />
<glyph unicode="&#x20;" horiz-adv-x="512" d="" />
<glyph unicode="&#xe918;" glyph-name="Add-Window" d="M1002.667 64h-981.333c-11.776 0-21.333 9.6-21.333 21.333v725.333c0 11.733 9.557 21.333 21.333 21.333h981.333c11.733 0 21.333-9.6 21.333-21.333v-725.333c0-11.733-9.6-21.333-21.333-21.333zM42.667 106.667h938.667v682.667h-938.667v-682.667zM981.333 618.667h-938.667c-11.776 0-21.333 9.6-21.333 21.333s9.557 21.333 21.333 21.333h938.667c11.733 0 21.333-9.6 21.333-21.333s-9.6-21.333-21.333-21.333zM170.667 725.333c0-11.782-9.551-21.333-21.333-21.333s-21.333 9.551-21.333 21.333c0 11.782 9.551 21.333 21.333 21.333s21.333-9.551 21.333-21.333zM256 725.333c0-11.782-9.551-21.333-21.333-21.333s-21.333 9.551-21.333 21.333c0 11.782 9.551 21.333 21.333 21.333s21.333-9.551 21.333-21.333zM341.333 725.333c0-11.782-9.551-21.333-21.333-21.333s-21.333 9.551-21.333 21.333c0 11.782 9.551 21.333 21.333 21.333s21.333-9.551 21.333-21.333zM789.333 170.667c-11.733 0-21.333 9.6-21.333 21.333v213.333c0 11.733 9.6 21.333 21.333 21.333s21.333-9.6 21.333-21.333v-213.333c0-11.733-9.6-21.333-21.333-21.333zM896 277.333h-213.333c-11.733 0-21.333 9.6-21.333 21.333s9.6 21.333 21.333 21.333h213.333c11.733 0 21.333-9.6 21.333-21.333s-9.6-21.333-21.333-21.333z" />
<glyph unicode="&#xe919;" glyph-name="Approved-Window" d="M1002.667 21.333h-981.333c-11.776 0-21.333 9.6-21.333 21.333v810.667c0 11.733 9.557 21.333 21.333 21.333h981.333c11.733 0 21.333-9.6 21.333-21.333v-810.667c0-11.733-9.6-21.333-21.333-21.333zM42.667 64h938.667v768h-938.667v-768zM981.333 661.333h-938.667c-11.776 0-21.333 9.6-21.333 21.333s9.557 21.333 21.333 21.333h938.667c11.733 0 21.333-9.6 21.333-21.333s-9.6-21.333-21.333-21.333zM754.688 122.667c-82.389 0-149.333 66.987-149.333 149.333s66.944 149.333 149.333 149.333c82.347 0 149.333-66.987 149.333-149.333s-67.029-149.333-149.333-149.333zM754.688 378.667c-58.837 0-106.667-47.829-106.667-106.667s47.829-106.667 106.667-106.667c58.752 0 106.667 47.829 106.667 106.667s-47.872 106.667-106.667 106.667zM768 211.499c-5.163 0-10.325 1.835-14.421 5.632l-42.667 39.168c-8.704 7.979-9.259 21.461-1.28 30.123 8.021 8.661 21.504 9.173 30.123 1.237l27.776-25.6 156.203 153.045c8.405 8.107 21.931 8.021 30.165-0.341 8.235-8.277 8.107-22.059-0.256-30.165l-170.667-167.168c-4.181-3.883-9.6-5.931-14.976-5.931zM128 768c0-11.782-9.551-21.333-21.333-21.333s-21.333 9.551-21.333 21.333c0 11.782 9.551 21.333 21.333 21.333s21.333-9.551 21.333-21.333zM213.333 768c0-11.782-9.551-21.333-21.333-21.333s-21.333 9.551-21.333 21.333c0 11.782 9.551 21.333 21.333 21.333s21.333-9.551 21.333-21.333zM298.667 768c0-11.782-9.551-21.333-21.333-21.333s-21.333 9.551-21.333 21.333c0 11.782 9.551 21.333 21.333 21.333s21.333-9.551 21.333-21.333z" />
<glyph unicode="&#xe91a;" glyph-name="Block-Window" d="M128 725.333c0-11.782-9.551-21.333-21.333-21.333s-21.333 9.551-21.333 21.333c0 11.782 9.551 21.333 21.333 21.333s21.333-9.551 21.333-21.333zM213.333 725.333c0-11.782-9.551-21.333-21.333-21.333s-21.333 9.551-21.333 21.333c0 11.782 9.551 21.333 21.333 21.333s21.333-9.551 21.333-21.333zM298.667 725.333c0-11.782-9.551-21.333-21.333-21.333s-21.333 9.551-21.333 21.333c0 11.782 9.551 21.333 21.333 21.333s21.333-9.551 21.333-21.333zM1002.667 64h-981.333c-11.733 0-21.333 9.6-21.333 21.333v725.333c0 11.733 9.6 21.333 21.333 21.333h981.333c11.733 0 21.333-9.6 21.333-21.333v-725.333c0-11.733-9.6-21.333-21.333-21.333zM42.667 106.667h938.667v682.667h-938.667v-682.667zM981.333 618.667h-938.667c-11.733 0-21.333 9.6-21.333 21.333s9.6 21.333 21.333 21.333h938.667c11.733 0 21.333-9.6 21.333-21.333s-9.6-21.333-21.333-21.333zM490.667 128c-117.632 0-213.333 95.701-213.333 213.333s95.701 213.333 213.333 213.333 213.333-95.701 213.333-213.333-95.701-213.333-213.333-213.333zM490.667 512c-94.123 0-170.667-76.544-170.667-170.667s76.544-170.667 170.667-170.667 170.667 76.544 170.667 170.667-76.544 170.667-170.667 170.667zM554.667 320h-128c-11.733 0-21.333 9.6-21.333 21.333s9.6 21.333 21.333 21.333h128c11.733 0 21.333-9.6 21.333-21.333s-9.6-21.333-21.333-21.333z" />
<glyph unicode="&#xe91b;" glyph-name="Close-Window" d="M346.069 260.736c-5.461 0-10.923 2.091-15.104 6.229-8.32 8.192-8.32 21.845 0 30.165l331.819 331.691c8.277 8.192 21.845 8.192 30.165 0 8.277-8.192 8.277-21.973 0-30.165l-331.819-331.691c-4.139-4.139-9.6-6.229-15.061-6.229zM677.931 260.736c-5.461 0-10.923 2.091-15.104 6.229l-331.819 331.733c-8.32 8.192-8.32 21.973 0 30.165s21.845 8.192 30.165 0l331.819-331.691c8.32-8.32 8.32-21.973 0-30.165-4.139-4.181-9.557-6.272-15.061-6.272zM512-42.667c-270.549 0-490.667 220.16-490.667 490.667 0 270.592 220.117 490.667 490.667 490.667s490.667-220.075 490.667-490.667c0-270.507-220.117-490.667-490.667-490.667zM512 896c-247.040 0-448-200.917-448-448 0-246.997 200.96-448 448-448s448 201.003 448 448c0 247.083-200.96 448-448 448z" />
<glyph unicode="&#xe91c;" glyph-name="Code-Window" d="M1002.667 21.333h-981.333c-11.776 0-21.333 9.6-21.333 21.333v810.667c0 11.733 9.557 21.333 21.333 21.333h981.333c11.733 0 21.333-9.6 21.333-21.333v-810.667c0-11.733-9.6-21.333-21.333-21.333zM42.667 64h938.667v768h-938.667v-768zM981.333 661.333h-938.667c-11.776 0-21.333 9.6-21.333 21.333s9.557 21.333 21.333 21.333h938.667c11.733 0 21.333-9.6 21.333-21.333s-9.6-21.333-21.333-21.333zM343.125 129.749c-7.083 0-14.037 3.499-18.091 9.899l-129.792 206.251c-4.651 7.509-4.309 16.896 0.896 24.021l129.792 176c6.997 9.6 20.309 11.563 29.824 4.395 9.472-6.997 11.52-20.352 4.48-29.824l-121.131-164.309 122.027-193.92c6.272-9.941 3.285-23.168-6.699-29.355-3.456-2.176-7.424-3.157-11.307-3.157zM682.667 129.749c-3.883 0-7.851 0.981-11.349 3.285-9.984 6.229-13.013 19.413-6.699 29.355l122.027 193.92-121.173 164.352c-6.997 9.515-4.992 22.827 4.48 29.824 9.472 7.040 22.827 4.992 29.824-4.48l129.749-176c5.248-7.083 5.589-16.597 0.896-24.021l-129.792-206.251c-3.968-6.485-10.88-9.984-17.963-9.984zM426.667 168.832c-3.541 0-7.083 0.896-10.411 2.688-10.283 5.76-13.952 18.731-8.192 29.184l168.875 302.251c5.76 10.325 18.688 14.037 29.099 8.064 10.24-5.76 13.909-18.688 8.149-29.056l-168.875-302.251c-3.925-6.955-11.179-10.88-18.645-10.88zM128 768c0-11.782-9.551-21.333-21.333-21.333s-21.333 9.551-21.333 21.333c0 11.782 9.551 21.333 21.333 21.333s21.333-9.551 21.333-21.333zM213.333 768c0-11.782-9.551-21.333-21.333-21.333s-21.333 9.551-21.333 21.333c0 11.782 9.551 21.333 21.333 21.333s21.333-9.551 21.333-21.333zM298.667 768c0-11.782-9.551-21.333-21.333-21.333s-21.333 9.551-21.333 21.333c0 11.782 9.551 21.333 21.333 21.333s21.333-9.551 21.333-21.333z" />
<glyph unicode="&#xe91d;" glyph-name="Delete-Window" d="M1002.667 64h-981.333c-11.776 0-21.333 9.6-21.333 21.333v725.333c0 11.733 9.557 21.333 21.333 21.333h981.333c11.733 0 21.333-9.6 21.333-21.333v-725.333c0-11.733-9.6-21.333-21.333-21.333zM42.667 106.667h938.667v682.667h-938.667v-682.667zM981.333 618.667h-938.667c-11.776 0-21.333 9.6-21.333 21.333s9.557 21.333 21.333 21.333h938.667c11.733 0 21.333-9.6 21.333-21.333s-9.6-21.333-21.333-21.333zM170.667 725.333c0-11.782-9.551-21.333-21.333-21.333s-21.333 9.551-21.333 21.333c0 11.782 9.551 21.333 21.333 21.333s21.333-9.551 21.333-21.333zM256 725.333c0-11.782-9.551-21.333-21.333-21.333s-21.333 9.551-21.333 21.333c0 11.782 9.551 21.333 21.333 21.333s21.333-9.551 21.333-21.333zM341.333 725.333c0-11.782-9.551-21.333-21.333-21.333s-21.333 9.551-21.333 21.333c0 11.782 9.551 21.333 21.333 21.333s21.333-9.551 21.333-21.333zM864.768 201.899c-5.419 0-10.923 2.091-15.104 6.229l-150.827 150.827c-8.32 8.277-8.32 21.888 0 30.165s21.845 8.277 30.165 0l150.827-150.827c8.32-8.277 8.32-21.888 0-30.165-4.181-4.139-9.6-6.229-15.061-6.229zM713.899 201.899c-5.504 0-10.923 2.091-15.104 6.229-8.277 8.277-8.277 21.888 0 30.165l150.827 150.827c8.277 8.277 21.845 8.277 30.165 0 8.277-8.277 8.277-21.888 0-30.165l-150.827-150.827c-4.139-4.139-9.643-6.229-15.061-6.229z" />
<glyph unicode="&#xe91e;" glyph-name="Download-Window" d="M1002.667 64h-981.333c-11.776 0-21.333 9.6-21.333 21.333v725.333c0 11.733 9.557 21.333 21.333 21.333h981.333c11.733 0 21.333-9.6 21.333-21.333v-725.333c0-11.733-9.6-21.333-21.333-21.333zM42.667 106.667h938.667v682.667h-938.667v-682.667zM981.333 618.667h-938.667c-11.776 0-21.333 9.6-21.333 21.333s9.557 21.333 21.333 21.333h938.667c11.733 0 21.333-9.6 21.333-21.333s-9.6-21.333-21.333-21.333zM170.667 725.333c0-11.782-9.551-21.333-21.333-21.333s-21.333 9.551-21.333 21.333c0 11.782 9.551 21.333 21.333 21.333s21.333-9.551 21.333-21.333zM256 725.333c0-11.782-9.551-21.333-21.333-21.333s-21.333 9.551-21.333 21.333c0 11.782 9.551 21.333 21.333 21.333s21.333-9.551 21.333-21.333zM341.333 725.333c0-11.782-9.551-21.333-21.333-21.333s-21.333 9.551-21.333 21.333c0 11.782 9.551 21.333 21.333 21.333s21.333-9.551 21.333-21.333zM532.437 213.333c-4.736 0-9.472 1.579-13.397 4.651l-105.771 85.333c-9.173 7.424-10.624 20.736-3.2 29.995 7.381 9.173 20.821 10.667 29.995 3.243l92.416-74.496 92.459 74.496c9.173 7.424 22.571 5.973 29.995-3.243 7.339-9.173 5.973-22.528-3.243-29.995l-105.771-85.333c-3.968-3.072-8.704-4.651-13.483-4.651zM533.333 256c-11.776 0-21.333 9.6-21.333 21.333v213.333c0 11.733 9.557 21.333 21.333 21.333 11.733 0 21.333-9.6 21.333-21.333v-213.333c0-11.733-9.6-21.333-21.333-21.333z" />
<glyph unicode="&#xe91f;" glyph-name="Duplicate-Window" d="M874.667 149.333h-853.333c-11.776 0-21.333 9.6-21.333 21.333v682.667c0 11.733 9.557 21.333 21.333 21.333h853.333c11.733 0 21.333-9.6 21.333-21.333v-682.667c0-11.733-9.6-21.333-21.333-21.333zM42.667 192h810.667v640h-810.667v-640zM853.333 661.333h-810.667c-11.776 0-21.333 9.6-21.333 21.333s9.557 21.333 21.333 21.333h810.667c11.733 0 21.333-9.6 21.333-21.333s-9.6-21.333-21.333-21.333zM917.333 704h-21.333c-11.733 0-21.333 9.6-21.333 21.333s9.6 21.333 21.333 21.333h21.333c11.733 0 21.333-9.6 21.333-21.333s-9.6-21.333-21.333-21.333zM1002.667 682.667c-11.733 0-21.333 9.6-21.333 21.333-11.733 0-21.333 9.6-21.333 21.333s9.6 21.333 21.333 21.333h21.333c11.733 0 21.333-9.6 21.333-21.333v-21.333c0-11.733-9.6-21.333-21.333-21.333zM1002.667 170.667c-11.733 0-21.333 9.6-21.333 21.333v42.667c0 11.733 9.6 21.333 21.333 21.333s21.333-9.6 21.333-21.333v-42.667c0-11.733-9.6-21.333-21.333-21.333zM1002.667 341.333c-11.733 0-21.333 9.6-21.333 21.333v42.667c0 11.733 9.6 21.333 21.333 21.333s21.333-9.6 21.333-21.333v-42.667c0-11.733-9.6-21.333-21.333-21.333zM1002.667 512c-11.733 0-21.333 9.6-21.333 21.333v42.667c0 11.733 9.6 21.333 21.333 21.333s21.333-9.6 21.333-21.333v-42.667c0-11.733-9.6-21.333-21.333-21.333zM1002.667 21.333h-21.333c-11.733 0-21.333 9.6-21.333 21.333s9.6 21.333 21.333 21.333c0 11.733 9.6 21.333 21.333 21.333s21.333-9.6 21.333-21.333v-21.333c0-11.733-9.6-21.333-21.333-21.333zM853.333 21.333h-42.667c-11.733 0-21.333 9.6-21.333 21.333s9.6 21.333 21.333 21.333h42.667c11.733 0 21.333-9.6 21.333-21.333s-9.6-21.333-21.333-21.333zM682.667 21.333h-42.667c-11.733 0-21.333 9.6-21.333 21.333s9.6 21.333 21.333 21.333h42.667c11.733 0 21.333-9.6 21.333-21.333s-9.6-21.333-21.333-21.333zM512 21.333h-42.667c-11.776 0-21.333 9.6-21.333 21.333s9.557 21.333 21.333 21.333h42.667c11.776 0 21.333-9.6 21.333-21.333s-9.557-21.333-21.333-21.333zM341.333 21.333h-42.667c-11.776 0-21.333 9.6-21.333 21.333s9.557 21.333 21.333 21.333h42.667c11.776 0 21.333-9.6 21.333-21.333s-9.557-21.333-21.333-21.333zM170.667 21.333h-21.333c-11.776 0-21.333 9.6-21.333 21.333v21.333c0 11.733 9.557 21.333 21.333 21.333s21.333-9.6 21.333-21.333c11.776 0 21.333-9.6 21.333-21.333s-9.557-21.333-21.333-21.333zM149.333 106.667c-11.776 0-21.333 9.6-21.333 21.333v21.333c0 11.733 9.557 21.333 21.333 21.333s21.333-9.6 21.333-21.333v-21.333c0-11.733-9.557-21.333-21.333-21.333zM128 768c0-11.782-9.551-21.333-21.333-21.333s-21.333 9.551-21.333 21.333c0 11.782 9.551 21.333 21.333 21.333s21.333-9.551 21.333-21.333zM213.333 768c0-11.782-9.551-21.333-21.333-21.333s-21.333 9.551-21.333 21.333c0 11.782 9.551 21.333 21.333 21.333s21.333-9.551 21.333-21.333zM298.667 768c0-11.782-9.551-21.333-21.333-21.333s-21.333 9.551-21.333 21.333c0 11.782 9.551 21.333 21.333 21.333s21.333-9.551 21.333-21.333z" />
<glyph unicode="&#xe920;" glyph-name="Error-404-Window" d="M1002.667 21.333h-981.333c-11.776 0-21.333 9.6-21.333 21.333v810.667c0 11.733 9.557 21.333 21.333 21.333h981.333c11.733 0 21.333-9.6 21.333-21.333v-810.667c0-11.733-9.6-21.333-21.333-21.333zM42.667 64h938.667v768h-938.667v-768zM981.333 661.333h-938.667c-11.776 0-21.333 9.6-21.333 21.333s9.557 21.333 21.333 21.333h938.667c11.733 0 21.333-9.6 21.333-21.333s-9.6-21.333-21.333-21.333zM270.763 269.269v39.168c0 1.152 0 2.091 0.597 3.328l57.131 130.816c0.64 1.493 1.835 2.432 4.309 2.432h48c2.133 0 3.029-1.067 2.133-2.901l-57.771-131.115v-0.725h29.355c1.195 0 1.835 0.725 1.835 1.835v36.651c0 1.835 1.195 2.987 3.029 2.987h42.795c1.792 0 3.072-1.152 3.072-2.987v-36.651c0-1.109 0.299-1.835 1.536-1.835h11.904c1.835 0 3.072-1.109 3.072-2.944v-38.059c0-1.835-1.195-2.944-3.072-2.944h-11.605c-1.195 0-1.792-0.725-1.792-1.792v-24.021c0-1.92-1.237-3.072-3.072-3.072h-42.795c-1.835 0-3.029 1.152-3.029 3.072v24.021c0 1.067-0.64 1.792-1.835 1.792h-80.683c-1.92-0.171-3.115 1.109-3.115 2.944zM440.789 341.077c0 43.989 1.536 52.907 4.907 63.019 9.173 28.075 32.085 44.587 66.347 44.587 34.56 0 57.131-16.512 66.645-44.587 3.029-9.941 4.565-18.859 4.565-63.019s-1.536-52.821-4.565-63.019c-9.515-28.075-32.085-44.587-66.645-44.587-34.219 0-57.131 16.512-66.347 44.587-3.371 10.155-4.907 19.029-4.907 63.019zM512 275.669c8.875 0 14.677 3.669 17.109 11.349 1.536 4.864 2.133 9.6 2.133 54.229s-0.597 49.109-2.133 54.229c-2.475 7.68-8.277 11.349-17.109 11.349s-14.336-3.669-16.811-11.349c-1.835-4.864-2.432-9.6-2.432-54.229s0.597-49.109 2.432-54.229c2.475-7.68 7.936-11.349 16.811-11.349zM602.24 269.269v39.168c0 1.152 0 2.091 0.597 3.328l57.173 130.816c0.683 1.493 1.835 2.432 4.267 2.432h48c2.176 0 3.072-1.067 2.176-2.901l-57.771-131.115v-0.725h29.355c1.237 0 1.835 0.725 1.835 1.835v36.651c0 1.835 1.152 2.987 2.987 2.987h42.837c1.835 0 3.072-1.152 3.072-2.987v-36.651c0-1.109 0.256-1.835 1.493-1.835h11.904c1.835 0 3.072-1.109 3.072-2.944v-38.059c0-1.835-1.195-2.944-3.072-2.944h-11.563c-1.195 0-1.835-0.725-1.835-1.792v-24.021c0-1.92-1.195-3.072-3.072-3.072h-42.752c-1.835 0-3.029 1.152-3.029 3.072v24.021c0 1.067-0.64 1.792-1.835 1.792h-80.725c-1.835-0.171-3.115 1.109-3.115 2.944zM128 768c0-11.782-9.551-21.333-21.333-21.333s-21.333 9.551-21.333 21.333c0 11.782 9.551 21.333 21.333 21.333s21.333-9.551 21.333-21.333zM213.333 768c0-11.782-9.551-21.333-21.333-21.333s-21.333 9.551-21.333 21.333c0 11.782 9.551 21.333 21.333 21.333s21.333-9.551 21.333-21.333zM298.667 768c0-11.782-9.551-21.333-21.333-21.333s-21.333 9.551-21.333 21.333c0 11.782 9.551 21.333 21.333 21.333s21.333-9.551 21.333-21.333z" />
<glyph unicode="&#xe921;" glyph-name="Favorite-Window" d="M1002.667 21.333h-981.333c-11.776 0-21.333 9.6-21.333 21.333v810.667c0 11.733 9.557 21.333 21.333 21.333h981.333c11.733 0 21.333-9.6 21.333-21.333v-810.667c0-11.733-9.6-21.333-21.333-21.333zM42.667 64h938.667v768h-938.667v-768zM981.333 661.333h-938.667c-11.776 0-21.333 9.6-21.333 21.333s9.557 21.333 21.333 21.333h938.667c11.733 0 21.333-9.6 21.333-21.333s-9.6-21.333-21.333-21.333zM392.064 131.925c-4.395 0-8.789 1.323-12.501 4.096-7.509 5.419-10.667 15.104-7.808 23.936l41.131 127.701-107.563 79.189c-7.424 5.504-10.496 15.104-7.595 23.979s11.051 14.805 20.267 14.805h132.693l41.003 126.165c5.717 17.579 34.859 17.579 40.576 0l40.96-126.165h132.693c9.216 0 17.365-6.059 20.309-14.805 2.816-8.747-0.171-18.475-7.637-23.979l-107.563-79.275 41.088-127.104c2.816-8.832-0.341-18.475-7.765-23.893-7.509-5.419-17.579-5.461-25.088-0.043l-107.392 77.653-107.392-78.165c-3.584-2.773-7.979-4.096-12.416-4.096zM382.848 362.667l67.712-49.963c7.381-5.461 10.453-15.061 7.637-23.723l-25.771-80 66.944 48.853c7.467 5.419 17.579 5.461 25.045 0.043l66.987-48.555-25.728 79.403c-2.773 8.747 0.299 18.432 7.637 23.851l67.755 50.091h-83.413c-9.259 0-17.408 5.973-20.267 14.763l-25.557 78.507-25.515-78.507c-2.816-8.789-11.008-14.763-20.267-14.763h-83.2zM128 768c0-11.782-9.551-21.333-21.333-21.333s-21.333 9.551-21.333 21.333c0 11.782 9.551 21.333 21.333 21.333s21.333-9.551 21.333-21.333zM213.333 768c0-11.782-9.551-21.333-21.333-21.333s-21.333 9.551-21.333 21.333c0 11.782 9.551 21.333 21.333 21.333s21.333-9.551 21.333-21.333zM298.667 768c0-11.782-9.551-21.333-21.333-21.333s-21.333 9.551-21.333 21.333c0 11.782 9.551 21.333 21.333 21.333s21.333-9.551 21.333-21.333z" />
<glyph unicode="&#xe922;" glyph-name="Font-Window" d="M1002.667 21.333h-981.333c-11.733 0-21.333 9.6-21.333 21.333v810.667c0 11.733 9.6 21.333 21.333 21.333h981.333c11.733 0 21.333-9.6 21.333-21.333v-810.667c0-11.733-9.6-21.333-21.333-21.333zM42.667 64h938.667v768h-938.667v-768zM981.333 661.333h-938.667c-11.733 0-21.333 9.6-21.333 21.333s9.6 21.333 21.333 21.333h938.667c11.733 0 21.333-9.6 21.333-21.333s-9.6-21.333-21.333-21.333zM728.021 128.085c-21.163 0-41.771 3.413-59.563 11.349-31.659 14.080-49.365 40.405-49.792 74.155-0.341 25.429 9.216 47.659 27.563 64.597 53.675 49.152 167.851 39.68 180.437 38.315 11.605-1.152 20.395-11.563 19.115-23.339-1.067-11.648-11.093-20.267-23.424-19.157-29.653 2.901-114.005 3.584-147.584-27.349-9.515-8.747-13.739-19.072-13.568-32.725 0.213-16.939 8.021-28.373 24.405-35.712 38.229-16.896 104.405-3.755 129.963 18.688 8.832 7.765 22.229 6.912 30.123-1.92 7.765-8.832 6.741-22.315-2.091-30.165-24.277-21.504-71.040-36.736-115.584-36.736zM175.488 108.245c-2.517 0-4.949 0.427-7.509 1.365-11.008 4.139-16.725 16.427-12.416 27.477l160.469 428.416c4.139 11.008 16.299 16.896 27.477 12.416 11.008-4.139 16.64-16.427 12.459-27.477l-160.469-428.373c-3.2-8.533-11.349-13.824-20.011-13.824zM508.587 108.245c-8.619 0-16.768 5.291-19.968 13.824l-160.555 428.373c-4.224 11.051 1.536 23.339 12.501 27.477 11.179 4.437 23.339-1.408 27.477-12.416l160.555-428.416c4.181-11.008-1.493-23.339-12.501-27.477-2.517-0.939-4.992-1.365-7.509-1.365zM426.667 320h-170.667c-11.733 0-21.333 9.6-21.333 21.333s9.6 21.333 21.333 21.333h170.667c11.733 0 21.333-9.6 21.333-21.333s-9.6-21.333-21.333-21.333zM832 128c-11.733 0-21.333 9.6-21.333 21.333v207.104c-8.32 11.819-19.115 19.157-32.768 22.229-40.277 8.619-96.896-21.163-114.987-33.579-9.813-6.485-23.040-4.096-29.653 5.675-6.571 9.771-4.096 23.040 5.675 29.568 3.328 2.347 81.749 54.827 148.395 39.979 27.051-6.144 48.299-21.675 63.104-46.635 2.005-3.285 2.944-7.083 2.944-10.923v-213.333c-0.043-11.819-9.643-21.419-21.376-21.419zM128 768c0-11.782-9.551-21.333-21.333-21.333s-21.333 9.551-21.333 21.333c0 11.782 9.551 21.333 21.333 21.333s21.333-9.551 21.333-21.333zM213.333 768c0-11.782-9.551-21.333-21.333-21.333s-21.333 9.551-21.333 21.333c0 11.782 9.551 21.333 21.333 21.333s21.333-9.551 21.333-21.333zM298.667 768c0-11.782-9.551-21.333-21.333-21.333s-21.333 9.551-21.333 21.333c0 11.782 9.551 21.333 21.333 21.333s21.333-9.551 21.333-21.333z" />
<glyph unicode="&#xe923;" glyph-name="Full-View-Window" d="M1002.667 21.333h-981.333c-11.776 0-21.333 9.6-21.333 21.333v810.667c0 11.733 9.557 21.333 21.333 21.333h981.333c11.733 0 21.333-9.6 21.333-21.333v-810.667c0-11.733-9.6-21.333-21.333-21.333zM42.667 64h938.667v768h-938.667v-768zM981.333 661.333h-938.667c-11.776 0-21.333 9.6-21.333 21.333s9.557 21.333 21.333 21.333h938.667c11.733 0 21.333-9.6 21.333-21.333s-9.6-21.333-21.333-21.333zM874.667 149.333h-106.667c-11.733 0-21.333 9.6-21.333 21.333s9.6 21.333 21.333 21.333h85.333v85.333c0 11.733 9.6 21.333 21.333 21.333s21.333-9.6 21.333-21.333v-106.667c0-11.733-9.6-21.333-21.333-21.333zM256 149.333h-106.667c-11.776 0-21.333 9.6-21.333 21.333v106.667c0 11.733 9.557 21.333 21.333 21.333s21.333-9.6 21.333-21.333v-85.333h85.333c11.776 0 21.333-9.6 21.333-21.333s-9.557-21.333-21.333-21.333zM874.667 384c-11.733 0-21.333 9.6-21.333 21.333v85.333h-85.333c-11.733 0-21.333 9.6-21.333 21.333s9.6 21.333 21.333 21.333h106.667c11.733 0 21.333-9.6 21.333-21.333v-106.667c0-11.733-9.6-21.333-21.333-21.333zM149.333 384c-11.776 0-21.333 9.6-21.333 21.333v106.667c0 11.733 9.557 21.333 21.333 21.333h106.667c11.776 0 21.333-9.6 21.333-21.333s-9.557-21.333-21.333-21.333h-85.333v-85.333c0-11.733-9.557-21.333-21.333-21.333zM213.333 213.333c-8.789 0-16.981 5.419-20.096 14.165-3.968 11.093 1.792 23.296 12.928 27.264l597.333 213.333c10.965 3.925 23.296-1.749 27.264-12.928 4.011-11.093-1.749-23.296-12.928-27.264l-597.333-213.333c-2.347-0.811-4.779-1.237-7.168-1.237zM810.667 213.333c-2.432 0-4.821 0.427-7.168 1.237l-597.333 213.333c-11.093 3.925-16.896 16.171-12.928 27.264 3.925 11.179 16.085 16.896 27.264 12.928l597.333-213.333c11.093-3.925 16.896-16.171 12.928-27.264-3.115-8.747-11.307-14.165-20.096-14.165zM128 768c0-11.782-9.551-21.333-21.333-21.333s-21.333 9.551-21.333 21.333c0 11.782 9.551 21.333 21.333 21.333s21.333-9.551 21.333-21.333zM213.333 768c0-11.782-9.551-21.333-21.333-21.333s-21.333 9.551-21.333 21.333c0 11.782 9.551 21.333 21.333 21.333s21.333-9.551 21.333-21.333zM298.667 768c0-11.782-9.551-21.333-21.333-21.333s-21.333 9.551-21.333 21.333c0 11.782 9.551 21.333 21.333 21.333s21.333-9.551 21.333-21.333z" />
<glyph unicode="&#xe924;" glyph-name="Height-Window" d="M1002.667 21.333h-981.333c-11.733 0-21.333 9.6-21.333 21.333v810.667c0 11.733 9.6 21.333 21.333 21.333h981.333c11.733 0 21.333-9.6 21.333-21.333v-810.667c0-11.733-9.6-21.333-21.333-21.333zM42.667 64h938.667v768h-938.667v-768zM981.333 661.333h-938.667c-11.733 0-21.333 9.6-21.333 21.333s9.6 21.333 21.333 21.333h938.667c11.733 0 21.333-9.6 21.333-21.333s-9.6-21.333-21.333-21.333zM490.667 213.333c-11.733 0-21.333 9.6-21.333 21.333v213.333c0 11.733 9.6 21.333 21.333 21.333s21.333-9.6 21.333-21.333v-213.333c0-11.733-9.6-21.333-21.333-21.333zM554.667 384c-4.736 0-9.6 1.579-13.483 4.821l-50.773 41.771-50.944-41.771c-9.045-7.424-22.443-6.229-29.952 2.816-7.552 9.088-6.229 22.485 2.859 30.037l64.469 52.693c8.021 6.443 19.157 6.443 27.179 0l64.427-52.693c9.131-7.509 10.411-20.907 2.987-30.037-4.48-4.992-10.581-7.637-16.768-7.637zM490.24 170.667c-4.779 0-9.6 1.621-13.525 4.821l-64.469 52.779c-9.088 7.467-10.411 20.907-2.944 30.037s20.907 10.368 30.037 2.773l50.901-41.771 50.816 41.771c9.088 7.509 22.485 6.229 30.080-2.773 7.424-9.131 6.101-22.443-2.987-30.037l-64.427-52.736c-3.883-3.243-8.619-4.864-13.483-4.864zM554.667 490.667h-128c-11.733 0-21.333 9.6-21.333 21.333s9.6 21.333 21.333 21.333h128c11.733 0 21.333-9.6 21.333-21.333s-9.6-21.333-21.333-21.333zM554.667 106.667h-128c-11.733 0-21.333 9.6-21.333 21.333s9.6 21.333 21.333 21.333h128c11.733 0 21.333-9.6 21.333-21.333s-9.6-21.333-21.333-21.333zM128 768c0-11.782-9.551-21.333-21.333-21.333s-21.333 9.551-21.333 21.333c0 11.782 9.551 21.333 21.333 21.333s21.333-9.551 21.333-21.333zM213.333 768c0-11.782-9.551-21.333-21.333-21.333s-21.333 9.551-21.333 21.333c0 11.782 9.551 21.333 21.333 21.333s21.333-9.551 21.333-21.333zM298.667 768c0-11.782-9.551-21.333-21.333-21.333s-21.333 9.551-21.333 21.333c0 11.782 9.551 21.333 21.333 21.333s21.333-9.551 21.333-21.333z" />
<glyph unicode="&#xe925;" glyph-name="Home-Window" d="M1002.667 21.333h-981.333c-11.733 0-21.333 9.6-21.333 21.333v810.667c0 11.733 9.6 21.333 21.333 21.333h981.333c11.733 0 21.333-9.6 21.333-21.333v-810.667c0-11.733-9.6-21.333-21.333-21.333zM42.667 64h938.667v768h-938.667v-768zM981.333 661.333h-938.667c-11.733 0-21.333 9.6-21.333 21.333s9.6 21.333 21.333 21.333h938.667c11.733 0 21.333-9.6 21.333-21.333s-9.6-21.333-21.333-21.333zM704 106.667h-341.333c-11.733 0-21.333 9.6-21.333 21.333v256c0 11.733 9.6 21.333 21.333 21.333h341.333c11.733 0 21.333-9.6 21.333-21.333v-256c0-11.733-9.6-21.333-21.333-21.333zM384 149.333h298.667v213.333h-298.667v-213.333zM771.627 362.667c-0.171-0.085-0.512-0.085-0.896 0h-474.795c-9.387 0-17.579 6.101-20.437 15.019-2.731 8.832 0.597 18.645 8.149 23.979l237.355 165.333c7.339 5.077 16.981 5.077 24.405 0l234.155-163.115c7.851-3.2 13.269-10.88 13.269-19.712 0.128-11.904-9.429-21.504-21.205-21.504zM363.819 405.333h338.987l-169.643 118.016-169.344-118.016zM128 768c0-11.782-9.551-21.333-21.333-21.333s-21.333 9.551-21.333 21.333c0 11.782 9.551 21.333 21.333 21.333s21.333-9.551 21.333-21.333zM213.333 768c0-11.782-9.551-21.333-21.333-21.333s-21.333 9.551-21.333 21.333c0 11.782 9.551 21.333 21.333 21.333s21.333-9.551 21.333-21.333zM298.667 768c0-11.782-9.551-21.333-21.333-21.333s-21.333 9.551-21.333 21.333c0 11.782 9.551 21.333 21.333 21.333s21.333-9.551 21.333-21.333z" />
<glyph unicode="&#xe926;" glyph-name="Info-Window" d="M1002.667 21.333h-981.333c-11.776 0-21.333 9.6-21.333 21.333v810.667c0 11.733 9.557 21.333 21.333 21.333h981.333c11.733 0 21.333-9.6 21.333-21.333v-810.667c0-11.733-9.6-21.333-21.333-21.333zM42.667 64h938.667v768h-938.667v-768zM981.333 661.333h-938.667c-11.776 0-21.333 9.6-21.333 21.333s9.557 21.333 21.333 21.333h938.667c11.733 0 21.333-9.6 21.333-21.333s-9.6-21.333-21.333-21.333zM474.112 405.333c-3.072 0-5.12 2.091-5.12 5.12v74.197c0 2.944 2.048 5.077 5.12 5.077h75.733c3.072 0 5.12-2.005 5.12-5.077v-74.197c0-3.029-2.048-5.12-5.12-5.12h-75.733zM474.112 192.981c-3.072 0-5.12 2.005-5.12 5.077v160.085c0 2.987 2.048 5.163 5.12 5.163h75.733c3.072 0 5.12-2.091 5.12-5.163v-160.085c0-3.072-2.048-5.077-5.12-5.077h-75.733zM128 768c0-11.782-9.551-21.333-21.333-21.333s-21.333 9.551-21.333 21.333c0 11.782 9.551 21.333 21.333 21.333s21.333-9.551 21.333-21.333zM213.333 768c0-11.782-9.551-21.333-21.333-21.333s-21.333 9.551-21.333 21.333c0 11.782 9.551 21.333 21.333 21.333s21.333-9.551 21.333-21.333zM298.667 768c0-11.782-9.551-21.333-21.333-21.333s-21.333 9.551-21.333 21.333c0 11.782 9.551 21.333 21.333 21.333s21.333-9.551 21.333-21.333z" />
<glyph unicode="&#xe927;" glyph-name="Loading-Window" d="M128 768c0-11.782-9.551-21.333-21.333-21.333s-21.333 9.551-21.333 21.333c0 11.782 9.551 21.333 21.333 21.333s21.333-9.551 21.333-21.333zM213.333 768c0-11.782-9.551-21.333-21.333-21.333s-21.333 9.551-21.333 21.333c0 11.782 9.551 21.333 21.333 21.333s21.333-9.551 21.333-21.333zM298.667 768c0-11.782-9.551-21.333-21.333-21.333s-21.333 9.551-21.333 21.333c0 11.782 9.551 21.333 21.333 21.333s21.333-9.551 21.333-21.333zM1002.667 21.333h-981.333c-11.733 0-21.333 9.6-21.333 21.333v810.667c0 11.733 9.6 21.333 21.333 21.333h981.333c11.733 0 21.333-9.6 21.333-21.333v-810.667c0-11.733-9.6-21.333-21.333-21.333zM42.667 64h938.667v768h-938.667v-768zM981.333 661.333h-938.667c-11.733 0-21.333 9.6-21.333 21.333s9.6 21.333 21.333 21.333h938.667c11.733 0 21.333-9.6 21.333-21.333s-9.6-21.333-21.333-21.333zM674.176 106.667c-0.213-0.085-0.512-0.085-0.853 0h-322.688c-8.021 0-15.275 4.48-18.944 11.563-3.669 7.168-2.901 15.659 1.664 22.187l161.323 224c8.021 11.264 26.581 11.264 34.603 0l158.635-219.904c4.608-3.925 7.723-9.771 7.723-16.512-0.128-11.733-9.685-21.333-21.461-21.333zM392.32 149.333h239.317l-119.808 166.187-119.509-166.187zM512 309.333c-6.869 0-13.355 3.285-17.237 8.832l-161.323 224c-4.651 6.485-5.376 15.104-1.792 22.272 3.669 7.083 11.136 11.563 18.987 11.563h322.688c8.021 0 15.275-4.437 18.944-11.563 3.669-7.168 2.901-15.659-1.664-22.229l-161.323-224c-3.925-5.589-10.411-8.875-17.28-8.875zM392.32 533.333l119.68-166.187 119.68 166.187h-239.36zM597.333 192h-170.667c-11.733 0-21.333 9.6-21.333 21.333s9.6 21.333 21.333 21.333h170.667c11.733 0 21.333-9.6 21.333-21.333s-9.6-21.333-21.333-21.333z" />
<glyph unicode="&#xe928;" glyph-name="Lock-Window" d="M578.731 106.667h-133.547c-55.339 0-103.893 45.099-103.893 96.512v138.155c0 11.733 9.557 21.333 21.333 21.333h298.667c11.776 0 21.333-9.6 21.333-21.333v-138.155c0.043-51.413-48.555-96.512-103.893-96.512zM384 320v-116.821c0-27.605 29.739-53.845 61.227-53.845h133.589c31.403 0 61.227 26.069 61.227 53.845v116.821h-256.043zM618.667 341.333c-11.733 0-21.333 9.6-21.333 21.333v40.832c0 32.597-9.984 87.168-76.971 87.168h-16.725c-66.987 0-76.971-54.571-76.971-87.168v-40.832c0-11.733-9.557-21.333-21.333-21.333s-21.333 9.6-21.333 21.333v40.832c0 80.085 45.867 129.835 119.637 129.835h16.725c73.771 0 119.637-49.749 119.637-129.835v-40.832c0-11.733-9.6-21.333-21.333-21.333zM1002.667 21.333h-981.333c-11.776 0-21.333 9.6-21.333 21.333v810.667c0 11.733 9.557 21.333 21.333 21.333h981.333c11.733 0 21.333-9.6 21.333-21.333v-810.667c0-11.733-9.6-21.333-21.333-21.333zM42.667 64h938.667v768h-938.667v-768zM981.333 661.333h-938.667c-11.776 0-21.333 9.6-21.333 21.333s9.557 21.333 21.333 21.333h938.667c11.733 0 21.333-9.6 21.333-21.333s-9.6-21.333-21.333-21.333zM128 768c0-11.782-9.551-21.333-21.333-21.333s-21.333 9.551-21.333 21.333c0 11.782 9.551 21.333 21.333 21.333s21.333-9.551 21.333-21.333zM213.333 768c0-11.782-9.551-21.333-21.333-21.333s-21.333 9.551-21.333 21.333c0 11.782 9.551 21.333 21.333 21.333s21.333-9.551 21.333-21.333zM298.667 768c0-11.782-9.551-21.333-21.333-21.333s-21.333 9.551-21.333 21.333c0 11.782 9.551 21.333 21.333 21.333s21.333-9.551 21.333-21.333z" />
<glyph unicode="&#xe929;" glyph-name="Love-Window" d="M1002.667 21.333h-981.333c-11.776 0-21.333 9.6-21.333 21.333v810.667c0 11.733 9.557 21.333 21.333 21.333h981.333c11.733 0 21.333-9.6 21.333-21.333v-810.667c0-11.733-9.6-21.333-21.333-21.333zM42.667 64h938.667v768h-938.667v-768zM981.333 661.333h-938.667c-11.776 0-21.333 9.6-21.333 21.333s9.557 21.333 21.333 21.333h938.667c11.733 0 21.333-9.6 21.333-21.333s-9.6-21.333-21.333-21.333zM510.421 85.333c-3.627 0-7.296 0.896-10.581 2.731-203.691 116.437-244.096 226.688-242.091 298.837 2.347 84.395 59.947 140.075 87.509 153.771 24.149 12.032 47.488 18.219 69.333 18.219 43.136 0 76.032-23.808 95.872-56.576 19.797 32.896 52.736 56.576 95.915 56.576 21.888 0 45.227-6.229 69.333-18.219 27.563-13.781 85.163-69.547 87.467-153.771 2.005-72.064-38.4-182.357-242.091-298.837-3.371-1.835-7.040-2.731-10.667-2.731zM414.549 516.352c-15.147 0-32.043-4.48-50.219-13.568-15.787-8.021-62.165-51.968-63.957-116.736-2.347-84.523 70.229-172.331 210.005-254.421 139.776 82.091 212.395 169.771 210.005 254.336-1.792 64.896-48.128 109.099-63.915 116.907-18.176 9.088-35.029 13.611-50.219 13.611-51.456 0-74.581-53.76-74.581-91.776 0-11.776-9.557-21.333-21.333-21.333s-21.333 9.557-21.333 21.333c0.085 37.888-23.040 91.648-74.453 91.648zM128 768c0-11.782-9.551-21.333-21.333-21.333s-21.333 9.551-21.333 21.333c0 11.782 9.551 21.333 21.333 21.333s21.333-9.551 21.333-21.333zM213.333 768c0-11.782-9.551-21.333-21.333-21.333s-21.333 9.551-21.333 21.333c0 11.782 9.551 21.333 21.333 21.333s21.333-9.551 21.333-21.333zM298.667 768c0-11.782-9.551-21.333-21.333-21.333s-21.333 9.551-21.333 21.333c0 11.782 9.551 21.333 21.333 21.333s21.333-9.551 21.333-21.333z" />
<glyph unicode="&#xe92a;" glyph-name="Maximize-Window" d="M512-42.667c-270.549 0-490.667 220.16-490.667 490.667 0 270.592 220.117 490.667 490.667 490.667s490.667-220.075 490.667-490.667c0-270.507-220.117-490.667-490.667-490.667zM512 896c-247.040 0-448-200.917-448-448 0-246.997 200.96-448 448-448s448 201.003 448 448c0 247.083-200.96 448-448 448zM661.333 125.397h-341.333c-11.776 0-21.333 9.6-21.333 21.333v512c0 11.733 9.557 21.333 21.333 21.333h341.333c11.733 0 21.333-9.6 21.333-21.333v-512c0-11.733-9.6-21.333-21.333-21.333zM341.333 168.064h298.667v469.333h-298.667v-469.333zM746.667 210.731h-106.667v42.667h85.333v469.333h-256v-85.333h-42.667v106.667c0 11.733 9.557 21.333 21.333 21.333h298.667c11.733 0 21.333-9.6 21.333-21.333v-512c0-11.733-9.6-21.333-21.333-21.333zM640 509.397h-298.667c-11.776 0-21.333 9.6-21.333 21.333s9.557 21.333 21.333 21.333h298.667c11.733 0 21.333-9.6 21.333-21.333s-9.6-21.333-21.333-21.333z" />
<glyph unicode="&#xe92b;" glyph-name="Minimize-Maximize-Close-Window" d="M992 74.667c-11.733 0-21.333 9.6-21.333 21.333v682.667h-938.667c-11.776 0-21.333 9.6-21.333 21.333s9.557 21.333 21.333 21.333h960c11.733 0 21.333-9.6 21.333-21.333v-704c0-11.733-9.6-21.333-21.333-21.333zM970.667 266.667h-938.667c-11.776 0-21.333 9.6-21.333 21.333s9.557 21.333 21.333 21.333h938.667c11.733 0 21.333-9.6 21.333-21.333s-9.6-21.333-21.333-21.333zM202.667 480h-85.333c-11.776 0-21.333 9.6-21.333 21.333s9.557 21.333 21.333 21.333h85.333c11.776 0 21.333-9.6 21.333-21.333s-9.557-21.333-21.333-21.333zM776.064 434.731c-5.504 0-10.923 2.091-15.104 6.229-8.277 8.277-8.277 21.888 0 30.165l90.496 90.496c8.277 8.277 21.845 8.277 30.165 0 8.277-8.277 8.277-21.888 0-30.165l-90.496-90.496c-4.139-4.139-9.643-6.229-15.061-6.229zM866.603 434.731c-5.419 0-10.923 2.091-15.104 6.229l-90.496 90.496c-8.32 8.277-8.32 21.888 0 30.165s21.845 8.277 30.165 0l90.496-90.496c8.32-8.277 8.32-21.888 0-30.165-4.181-4.139-9.643-6.229-15.061-6.229zM522.667 394.667h-128c-11.776 0-21.333 9.6-21.333 21.333v170.667c0 11.733 9.557 21.333 21.333 21.333h128c11.733 0 21.333-9.6 21.333-21.333v-170.667c0-11.733-9.6-21.333-21.333-21.333zM416 437.333h85.333v128h-85.333v-128zM608 437.333h-64v42.667h42.667v170.667h-128v-85.333h-42.667v106.667c0 11.733 9.557 21.333 21.333 21.333h170.667c11.733 0 21.333-9.6 21.333-21.333v-213.333c0-11.733-9.6-21.333-21.333-21.333z" />
<glyph unicode="&#xe92c;" glyph-name="Minimize-Window" d="M512-42.667c-270.549 0-490.667 220.16-490.667 490.667 0 270.592 220.117 490.667 490.667 490.667s490.667-220.075 490.667-490.667c0-270.507-220.117-490.667-490.667-490.667zM512 896c-247.040 0-448-200.917-448-448 0-246.997 200.96-448 448-448s448 201.003 448 448c0 247.083-200.96 448-448 448zM746.667 210.731h-469.333c-11.776 0-21.333 9.6-21.333 21.333v128c0 11.733 9.557 21.333 21.333 21.333h469.333c11.733 0 21.333-9.6 21.333-21.333v-128c0-11.733-9.6-21.333-21.333-21.333zM298.667 253.397h426.667v85.333h-426.667v-85.333z" />
<glyph unicode="&#xe92d;" glyph-name="Navigation-Left-Window" d="M1002.667 21.333h-981.333c-11.776 0-21.333 9.6-21.333 21.333v810.667c0 11.733 9.557 21.333 21.333 21.333h981.333c11.733 0 21.333-9.6 21.333-21.333v-810.667c0-11.733-9.6-21.333-21.333-21.333zM42.667 64h938.667v768h-938.667v-768zM981.333 661.333h-938.667c-11.776 0-21.333 9.6-21.333 21.333s9.557 21.333 21.333 21.333h938.667c11.733 0 21.333-9.6 21.333-21.333s-9.6-21.333-21.333-21.333zM170.667 768c0-11.782-9.551-21.333-21.333-21.333s-21.333 9.551-21.333 21.333c0 11.782 9.551 21.333 21.333 21.333s21.333-9.551 21.333-21.333zM256 768c0-11.782-9.551-21.333-21.333-21.333s-21.333 9.551-21.333 21.333c0 11.782 9.551 21.333 21.333 21.333s21.333-9.551 21.333-21.333zM341.333 768c0-11.782-9.551-21.333-21.333-21.333s-21.333 9.551-21.333 21.333c0 11.782 9.551 21.333 21.333 21.333s21.333-9.551 21.333-21.333z" />
<glyph unicode="&#xe92e;" glyph-name="Navigation-Right-Window" d="M1002.667 21.333h-981.333c-11.776 0-21.333 9.6-21.333 21.333v810.667c0 11.733 9.557 21.333 21.333 21.333h981.333c11.733 0 21.333-9.6 21.333-21.333v-810.667c0-11.733-9.6-21.333-21.333-21.333zM42.667 64h938.667v768h-938.667v-768zM981.333 661.333h-938.667c-11.776 0-21.333 9.6-21.333 21.333s9.557 21.333 21.333 21.333h938.667c11.733 0 21.333-9.6 21.333-21.333s-9.6-21.333-21.333-21.333zM896 768c0-11.782-9.551-21.333-21.333-21.333s-21.333 9.551-21.333 21.333c0 11.782 9.551 21.333 21.333 21.333s21.333-9.551 21.333-21.333zM810.667 768c0-11.782-9.551-21.333-21.333-21.333s-21.333 9.551-21.333 21.333c0 11.782 9.551 21.333 21.333 21.333s21.333-9.551 21.333-21.333zM725.333 768c0-11.782-9.551-21.333-21.333-21.333s-21.333 9.551-21.333 21.333c0 11.782 9.551 21.333 21.333 21.333s21.333-9.551 21.333-21.333z" />
<glyph unicode="&#xe92f;" glyph-name="Network-Window" d="M1002.667 21.333h-981.333c-11.776 0-21.333 9.6-21.333 21.333v810.667c0 11.733 9.557 21.333 21.333 21.333h981.333c11.733 0 21.333-9.6 21.333-21.333v-810.667c0-11.733-9.6-21.333-21.333-21.333zM42.667 64h938.667v768h-938.667v-768zM981.333 661.333h-938.667c-11.776 0-21.333 9.6-21.333 21.333s9.557 21.333 21.333 21.333h938.667c11.733 0 21.333-9.6 21.333-21.333s-9.6-21.333-21.333-21.333zM618.667 405.333h-170.667c-11.776 0-21.333 9.6-21.333 21.333v128c0 11.733 9.557 21.333 21.333 21.333h170.667c11.733 0 21.333-9.6 21.333-21.333v-128c0-11.733-9.6-21.333-21.333-21.333zM469.333 448h128v85.333h-128v-85.333zM448 106.667h-170.667c-11.776 0-21.333 9.6-21.333 21.333v128c0 11.733 9.557 21.333 21.333 21.333h170.667c11.776 0 21.333-9.6 21.333-21.333v-128c0-11.733-9.557-21.333-21.333-21.333zM298.667 149.333h128v85.333h-128v-85.333zM789.333 106.667h-170.667c-11.733 0-21.333 9.6-21.333 21.333v128c0 11.733 9.6 21.333 21.333 21.333h170.667c11.733 0 21.333-9.6 21.333-21.333v-128c0-11.733-9.6-21.333-21.333-21.333zM640 149.333h128v85.333h-128v-85.333zM704 256c-11.733 0-21.333 9.6-21.333 21.333v42.667h-298.667v-42.667c0-11.733-9.557-21.333-21.333-21.333s-21.333 9.6-21.333 21.333v64c0 11.733 9.557 21.333 21.333 21.333h341.333c11.733 0 21.333-9.6 21.333-21.333v-64c0-11.733-9.6-21.333-21.333-21.333zM533.333 341.333c-11.776 0-21.333 9.6-21.333 21.333v42.667c0 11.733 9.557 21.333 21.333 21.333 11.733 0 21.333-9.6 21.333-21.333v-42.667c0-11.733-9.6-21.333-21.333-21.333zM128 768c0-11.782-9.551-21.333-21.333-21.333s-21.333 9.551-21.333 21.333c0 11.782 9.551 21.333 21.333 21.333s21.333-9.551 21.333-21.333zM213.333 768c0-11.782-9.551-21.333-21.333-21.333s-21.333 9.551-21.333 21.333c0 11.782 9.551 21.333 21.333 21.333s21.333-9.551 21.333-21.333zM298.667 768c0-11.782-9.551-21.333-21.333-21.333s-21.333 9.551-21.333 21.333c0 11.782 9.551 21.333 21.333 21.333s21.333-9.551 21.333-21.333z" />
<glyph unicode="&#xe930;" glyph-name="New-Tab" d="M938.667 298.667h-362.667c-11.733 0-21.333 9.6-21.333 21.333v103.083c0 72.533-59.008 131.584-131.541 131.584h-163.584c-72.533 0-131.541-59.051-131.541-131.584v-103.083c0-11.733-9.557-21.333-21.333-21.333h-64c-11.776 0-21.333 9.6-21.333 21.333s9.557 21.333 21.333 21.333h42.667v81.749c0 96.085 78.165 174.251 174.208 174.251h163.584c96.043 0 174.208-78.165 174.208-174.251v-81.749h341.333c11.733 0 21.333-9.6 21.333-21.333s-9.6-21.333-21.333-21.333zM981.333 298.667h-64c-11.733 0-21.333 9.6-21.333 21.333v103.083c0 72.533-59.008 131.584-131.541 131.584h-337.792c-11.776 0-21.333 9.6-21.333 21.333s9.557 21.333 21.333 21.333h337.792c96.043 0 174.208-78.165 174.208-174.251v-81.749h42.667c11.733 0 21.333-9.6 21.333-21.333s-9.6-21.333-21.333-21.333zM746.667 362.667c-11.733 0-21.333 9.6-21.333 21.333v128c0 11.733 9.6 21.333 21.333 21.333s21.333-9.6 21.333-21.333v-128c0-11.733-9.6-21.333-21.333-21.333zM810.667 426.667h-128c-11.733 0-21.333 9.6-21.333 21.333s9.6 21.333 21.333 21.333h128c11.733 0 21.333-9.6 21.333-21.333s-9.6-21.333-21.333-21.333z" />
<glyph unicode="&#xe931;" glyph-name="One-Window" d="M1002.667 21.333h-981.333c-11.776 0-21.333 9.6-21.333 21.333v810.667c0 11.733 9.557 21.333 21.333 21.333h981.333c11.733 0 21.333-9.6 21.333-21.333v-810.667c0-11.733-9.6-21.333-21.333-21.333zM42.667 64h938.667v768h-938.667v-768zM981.333 661.333h-938.667c-11.776 0-21.333 9.6-21.333 21.333s9.557 21.333 21.333 21.333h938.667c11.733 0 21.333-9.6 21.333-21.333s-9.6-21.333-21.333-21.333zM128 768c0-11.782-9.551-21.333-21.333-21.333s-21.333 9.551-21.333 21.333c0 11.782 9.551 21.333 21.333 21.333s21.333-9.551 21.333-21.333zM213.333 768c0-11.782-9.551-21.333-21.333-21.333s-21.333 9.551-21.333 21.333c0 11.782 9.551 21.333 21.333 21.333s21.333-9.551 21.333-21.333zM298.667 768c0-11.782-9.551-21.333-21.333-21.333s-21.333 9.551-21.333 21.333c0 11.782 9.551 21.333 21.333 21.333s21.333-9.551 21.333-21.333z" />
<glyph unicode="&#xe932;" glyph-name="Refresh-Window" d="M487.040 134.016c-45.739 0-91.52 17.408-126.293 52.395-33.749 33.749-52.352 78.592-52.352 126.336s18.603 92.587 52.352 126.336c8.32 8.192 21.845 8.192 30.165 0s8.32-21.973 0-30.165c-25.685-25.771-39.851-59.691-39.851-96.171s14.165-70.357 39.851-96.171c53.035-53.077 139.349-52.992 192.341 0 8.32 8.192 21.845 8.192 30.165 0s8.32-21.973 0-30.165c-34.816-34.987-80.64-52.395-126.379-52.395zM399.957 299.093c-10.069 0-19.029 7.168-20.949 17.451l-17.408 93.781-83.541 8.619c-11.733 1.195-20.267 11.605-19.029 23.424 1.237 11.605 11.648 20.053 23.424 18.944l99.456-10.24c9.429-0.896 17.067-8.021 18.773-17.323l20.309-109.397c2.133-11.563-5.504-22.741-17.067-24.832-1.365-0.256-2.688-0.427-3.968-0.427zM645.376 222.080c-5.461 0-10.923 2.091-15.104 6.229-8.277 8.192-8.277 21.845 0 30.165 52.992 52.992 52.992 139.307 0 192.341-52.992 52.907-139.307 52.992-192.299 0-8.32-8.32-21.845-8.32-30.165 0-8.32 8.192-8.32 21.845 0 30.165 69.632 69.675 182.955 69.675 252.629 0s69.675-183.083 0-252.672c-4.139-4.139-9.6-6.229-15.061-6.229zM745.045 195.413c-1.365 0-2.773 0.085-4.181 0.427l-103.552 20.565c-8.021 1.579-14.421 7.595-16.512 15.36l-29.355 112.341c-2.987 11.563 3.84 23.083 15.104 25.941 11.392 3.157 23.040-3.84 26.027-15.104l25.984-99.413 90.411-18.005c11.563-2.389 19.072-13.355 16.811-25.088-1.835-9.984-10.752-17.024-20.736-17.024zM1002.667 21.333h-981.333c-11.776 0-21.333 9.6-21.333 21.333v810.667c0 11.733 9.557 21.333 21.333 21.333h981.333c11.733 0 21.333-9.6 21.333-21.333v-810.667c0-11.733-9.6-21.333-21.333-21.333zM42.667 64h938.667v768h-938.667v-768zM981.333 661.333h-938.667c-11.776 0-21.333 9.6-21.333 21.333s9.557 21.333 21.333 21.333h938.667c11.733 0 21.333-9.6 21.333-21.333s-9.6-21.333-21.333-21.333zM128 768c0-11.782-9.551-21.333-21.333-21.333s-21.333 9.551-21.333 21.333c0 11.782 9.551 21.333 21.333 21.333s21.333-9.551 21.333-21.333zM213.333 768c0-11.782-9.551-21.333-21.333-21.333s-21.333 9.551-21.333 21.333c0 11.782 9.551 21.333 21.333 21.333s21.333-9.551 21.333-21.333zM298.667 768c0-11.782-9.551-21.333-21.333-21.333s-21.333 9.551-21.333 21.333c0 11.782 9.551 21.333 21.333 21.333s21.333-9.551 21.333-21.333z" />
<glyph unicode="&#xe933;" glyph-name="Remove-Window" d="M1002.667 64h-981.333c-11.776 0-21.333 9.6-21.333 21.333v725.333c0 11.733 9.557 21.333 21.333 21.333h981.333c11.733 0 21.333-9.6 21.333-21.333v-725.333c0-11.733-9.6-21.333-21.333-21.333zM42.667 106.667h938.667v682.667h-938.667v-682.667zM981.333 618.667h-938.667c-11.776 0-21.333 9.6-21.333 21.333s9.557 21.333 21.333 21.333h938.667c11.733 0 21.333-9.6 21.333-21.333s-9.6-21.333-21.333-21.333zM170.667 725.333c0-11.782-9.551-21.333-21.333-21.333s-21.333 9.551-21.333 21.333c0 11.782 9.551 21.333 21.333 21.333s21.333-9.551 21.333-21.333zM256 725.333c0-11.782-9.551-21.333-21.333-21.333s-21.333 9.551-21.333 21.333c0 11.782 9.551 21.333 21.333 21.333s21.333-9.551 21.333-21.333zM341.333 725.333c0-11.782-9.551-21.333-21.333-21.333s-21.333 9.551-21.333 21.333c0 11.782 9.551 21.333 21.333 21.333s21.333-9.551 21.333-21.333zM896 277.333h-213.333c-11.733 0-21.333 9.6-21.333 21.333s9.6 21.333 21.333 21.333h213.333c11.733 0 21.333-9.6 21.333-21.333s-9.6-21.333-21.333-21.333z" />
<glyph unicode="&#xe934;" glyph-name="Restore-Window" d="M512-42.667c-270.549 0-490.667 220.16-490.667 490.667 0 270.592 220.117 490.667 490.667 490.667s490.667-220.075 490.667-490.667c0-270.507-220.117-490.667-490.667-490.667zM512 896c-247.040 0-448-200.917-448-448 0-246.997 200.96-448 448-448s448 201.003 448 448c0 247.083-200.96 448-448 448zM503.979 256.981c-110.251 0-200.021 89.771-200.021 200.021 0 11.776 9.557 21.333 21.333 21.333s21.333-9.557 21.333-21.333c0-86.741 70.571-157.355 157.355-157.355s157.355 70.571 157.355 157.355c0 86.827-70.571 157.355-157.355 157.355-11.776 0-21.333 9.557-21.333 21.333s9.557 21.333 21.333 21.333c110.251 0 200.021-89.728 200.021-200.021 0-110.251-89.771-200.021-200.021-200.021zM545.707 525.269c-7.552 0-14.848 4.011-18.731 11.093l-49.664 90.837c-4.267 7.765-3.285 17.323 2.475 24.064l67.029 78.933c7.68 9.045 21.077 10.069 30.080 2.432s10.069-21.077 2.475-30.080l-57.557-67.712 42.624-77.995c5.675-10.325 1.835-23.339-8.491-28.971-3.285-1.792-6.784-2.603-10.24-2.603z" />
<glyph unicode="&#xe935;" glyph-name="Save-Window" d="M1002.667 21.333h-981.333c-11.776 0-21.333 9.6-21.333 21.333v810.667c0 11.733 9.557 21.333 21.333 21.333h981.333c11.733 0 21.333-9.6 21.333-21.333v-810.667c0-11.733-9.6-21.333-21.333-21.333zM42.667 64h938.667v768h-938.667v-768zM981.333 661.333h-938.667c-11.776 0-21.333 9.6-21.333 21.333s9.557 21.333 21.333 21.333h938.667c11.733 0 21.333-9.6 21.333-21.333s-9.6-21.333-21.333-21.333zM746.667 106.667h-426.667c-11.776 0-21.333 9.6-21.333 21.333v426.667c0 11.733 9.557 21.333 21.333 21.333h426.667c11.733 0 21.333-9.6 21.333-21.333v-426.667c0-11.733-9.6-21.333-21.333-21.333zM341.333 149.333h384v384h-384v-384zM618.667 362.667h-170.667c-11.776 0-21.333 9.6-21.333 21.333v170.667c0 11.733 9.557 21.333 21.333 21.333h170.667c11.733 0 21.333-9.6 21.333-21.333v-170.667c0-11.733-9.6-21.333-21.333-21.333zM469.333 405.333h128v128h-128v-128zM661.333 106.667h-256c-11.776 0-21.333 9.6-21.333 21.333v170.667c0 11.733 9.557 21.333 21.333 21.333h256c11.733 0 21.333-9.6 21.333-21.333v-170.667c0-11.733-9.6-21.333-21.333-21.333zM426.667 149.333h213.333v128h-213.333v-128zM128 768c0-11.782-9.551-21.333-21.333-21.333s-21.333 9.551-21.333 21.333c0 11.782 9.551 21.333 21.333 21.333s21.333-9.551 21.333-21.333zM213.333 768c0-11.782-9.551-21.333-21.333-21.333s-21.333 9.551-21.333 21.333c0 11.782 9.551 21.333 21.333 21.333s21.333-9.551 21.333-21.333zM298.667 768c0-11.782-9.551-21.333-21.333-21.333s-21.333 9.551-21.333 21.333c0 11.782 9.551 21.333 21.333 21.333s21.333-9.551 21.333-21.333z" />
<glyph unicode="&#xe936;" glyph-name="Settings-Window" d="M1002.667 21.333h-981.333c-11.776 0-21.333 9.6-21.333 21.333v810.667c0 11.733 9.557 21.333 21.333 21.333h981.333c11.733 0 21.333-9.6 21.333-21.333v-810.667c0-11.733-9.6-21.333-21.333-21.333zM42.667 64h938.667v768h-938.667v-768zM981.333 661.333h-938.667c-11.776 0-21.333 9.6-21.333 21.333s9.557 21.333 21.333 21.333h938.667c11.733 0 21.333-9.6 21.333-21.333s-9.6-21.333-21.333-21.333zM628.352 89.216c-11.733 0-21.333 9.557-21.333 21.333v34.859c0 11.691 9.6 21.333 21.333 21.333 11.776 0 21.333-9.643 21.333-21.333v-34.859c0-11.819-9.557-21.333-21.333-21.333zM628.352 333.568c-11.733 0-21.333 9.515-21.333 21.333v34.773c0 11.691 9.6 21.333 21.333 21.333 11.776 0 21.333-9.643 21.333-21.333v-34.773c0-11.819-9.557-21.333-21.333-21.333zM768 228.821h-34.901c-11.733 0-21.333 9.557-21.333 21.333 0 11.648 9.6 21.333 21.333 21.333h34.901c11.733 0 21.333-9.685 21.333-21.333 0-11.776-9.6-21.333-21.333-21.333zM523.648 228.821h-34.901c-11.776 0-21.333 9.557-21.333 21.333 0 11.648 9.557 21.333 21.333 21.333h34.901c11.776 0 21.333-9.685 21.333-21.333 0-11.776-9.515-21.333-21.333-21.333zM727.083 130.133c-5.461 0-10.923 2.091-15.104 6.229l-24.747 24.747c-8.32 8.32-8.32 21.973 0 30.165 8.277 8.32 21.845 8.32 30.165 0l24.747-24.747c8.277-8.235 8.277-21.845 0-30.165-4.139-4.096-9.6-6.229-15.061-6.229zM554.411 302.848c-5.419 0-10.88 2.091-15.104 6.229l-24.832 24.747c-8.32 8.32-8.363 21.845-0.043 30.165s21.76 8.235 30.208 0.085l24.832-24.747c8.277-8.32 8.32-21.845 0-30.165-4.139-4.267-9.557-6.315-15.061-6.315zM702.336 302.933c-5.461 0-10.923 2.091-15.104 6.272-8.32 8.277-8.277 21.888 0 30.165l24.747 24.661c8.363 8.277 21.888 8.277 30.165-0.085 8.32-8.363 8.277-21.888 0-30.165l-24.747-24.661c-4.181-4.139-9.643-6.187-15.061-6.187zM529.579 130.133c-5.461 0-10.923 2.091-15.104 6.229-8.32 8.32-8.32 22.016 0.043 30.165l24.747 24.747c8.277 8.277 21.845 8.277 30.165 0 8.32-8.235 8.32-21.931 0-30.165l-24.747-24.747c-4.181-4.096-9.643-6.229-15.104-6.229zM628.352 124.117c-69.419 0-125.995 56.533-125.995 126.037 0 69.547 56.576 126.080 125.995 126.080 69.504 0 126.080-56.533 126.080-126.080 0-69.504-56.619-126.037-126.080-126.037zM628.352 333.568c-45.909 0-83.328-37.419-83.328-83.413s37.419-83.413 83.328-83.413c45.995 0 83.413 37.419 83.413 83.413s-37.419 83.413-83.413 83.413zM349.099 89.216c-11.776 0-21.333 9.557-21.333 21.333v23.296c0 11.733 9.557 21.333 21.333 21.333s21.333-9.6 21.333-21.333v-23.296c0-11.819-9.557-21.333-21.333-21.333zM349.099 252.117c-11.776 0-21.333 9.557-21.333 21.333v23.296c0 11.733 9.557 21.333 21.333 21.333s21.333-9.6 21.333-21.333v-23.296c0-11.776-9.557-21.333-21.333-21.333zM442.155 182.315h-23.253c-11.776 0-21.333 9.557-21.333 21.333 0 11.648 9.557 21.333 21.333 21.333h23.253c11.776 0 21.333-9.685 21.333-21.333 0-11.776-9.515-21.333-21.333-21.333zM279.253 182.315h-23.253c-11.776 0-21.333 9.557-21.333 21.333 0 11.648 9.557 21.333 21.333 21.333h23.253c11.776 0 21.333-9.685 21.333-21.333 0-11.776-9.557-21.333-21.333-21.333zM414.933 116.48c-5.461 0-10.923 2.091-15.104 6.229l-16.512 16.555c-8.32 8.277-8.32 21.931 0 30.165 8.32 8.277 21.845 8.277 30.165 0l16.512-16.555c8.32-8.277 8.32-21.888 0-30.165-4.181-4.139-9.6-6.229-15.061-6.229zM299.776 231.595c-5.461 0-10.923 2.091-15.104 6.229l-16.555 16.597c-8.32 8.277-8.32 21.931 0 30.165 8.32 8.277 21.845 8.277 30.165 0l16.555-16.597c8.32-8.32 8.32-21.845 0-30.165-4.139-4.139-9.6-6.229-15.061-6.229zM398.421 231.68c-5.461 0-10.923 2.091-15.104 6.229-8.32 8.32-8.32 21.931 0.043 30.165l16.512 16.512c8.363 8.277 21.845 8.277 30.165 0s8.32-21.931-0.043-30.165l-16.512-16.512c-4.181-4.139-9.6-6.229-15.061-6.229zM283.264 116.48c-5.461 0-10.923 2.091-15.104 6.229-8.32 8.363-8.32 21.888 0.043 30.165l16.512 16.469c8.363 8.277 21.845 8.277 30.165 0 8.32-8.235 8.32-21.888-0.043-30.165l-16.512-16.469c-4.181-4.139-9.6-6.229-15.061-6.229zM349.099 112.512c-50.261 0-91.179 40.917-91.179 91.307s40.875 91.221 91.179 91.221c50.304 0 91.179-40.832 91.179-91.221s-40.917-91.307-91.179-91.307zM349.099 252.117c-26.752 0-48.512-21.76-48.512-48.469 0-26.752 21.76-48.64 48.512-48.64s48.512 21.76 48.512 48.64c-0.043 26.667-21.76 48.469-48.512 48.469zM488.747 368.512c-11.776 0-21.333 9.685-21.333 21.333v23.253c0 11.733 9.557 21.333 21.333 21.333s21.333-9.6 21.333-21.333v-23.253c0-11.861-9.557-21.333-21.333-21.333zM488.747 531.413c-11.776 0-21.333 9.6-21.333 21.333v23.253c0 11.733 9.557 21.333 21.333 21.333s21.333-9.6 21.333-21.333v-23.253c0-11.733-9.557-21.333-21.333-21.333zM581.845 461.568h-23.296c-11.776 0-21.333 9.515-21.333 21.333 0 11.648 9.557 21.333 21.333 21.333h23.296c11.776 0 21.333-9.685 21.333-21.333 0-11.819-9.557-21.333-21.333-21.333zM418.901 461.568h-23.253c-11.776 0-21.333 9.515-21.333 21.333 0 11.648 9.557 21.333 21.333 21.333h23.253c11.776 0 21.333-9.685 21.333-21.333 0-11.819-9.515-21.333-21.333-21.333zM554.539 395.733c-5.461 0-10.923 2.091-15.104 6.229l-16.512 16.555c-8.32 8.277-8.32 21.931 0 30.165 8.32 8.277 21.845 8.277 30.165 0l16.512-16.555c8.32-8.277 8.32-21.888 0-30.165-4.139-4.139-9.6-6.229-15.061-6.229zM439.424 510.933c-5.461 0-10.923 2.091-15.104 6.229l-16.512 16.597c-8.32 8.32-8.32 21.931 0.043 30.165 8.32 8.277 21.845 8.277 30.165 0l16.512-16.597c8.32-8.32 8.32-21.931-0.043-30.165-4.181-4.267-9.6-6.229-15.061-6.229zM538.069 510.933c-5.461 0-10.88 2.091-15.104 6.229-8.363 8.235-8.363 21.845-0.043 30.165l16.469 16.512c8.32 8.32 21.845 8.32 30.165 0 8.363-8.149 8.363-21.803 0.085-30.165l-16.512-16.512c-4.096-4.181-9.6-6.229-15.061-6.229zM422.912 395.733c-5.419 0-10.88 2.091-15.061 6.229-8.363 8.277-8.405 21.888-0.085 30.165l16.427 16.555c8.32 8.277 21.845 8.277 30.165 0.085 8.363-8.192 8.405-21.888 0.085-30.165l-16.427-16.555c-4.139-4.224-9.6-6.315-15.104-6.315zM488.747 391.765c-50.261 0-91.179 40.917-91.179 91.307s40.875 91.307 91.179 91.307c50.261 0 91.136-40.917 91.136-91.307s-40.875-91.307-91.136-91.307zM488.747 531.413c-26.752 0-48.512-21.76-48.512-48.512 0-26.837 21.76-48.64 48.512-48.64 26.709 0 48.469 21.76 48.469 48.64 0 26.752-21.717 48.512-48.469 48.512zM128 768c0-11.782-9.551-21.333-21.333-21.333s-21.333 9.551-21.333 21.333c0 11.782 9.551 21.333 21.333 21.333s21.333-9.551 21.333-21.333zM213.333 768c0-11.782-9.551-21.333-21.333-21.333s-21.333 9.551-21.333 21.333c0 11.782 9.551 21.333 21.333 21.333s21.333-9.551 21.333-21.333zM298.667 768c0-11.782-9.551-21.333-21.333-21.333s-21.333 9.551-21.333 21.333c0 11.782 9.551 21.333 21.333 21.333s21.333-9.551 21.333-21.333z" />
<glyph unicode="&#xe937;" glyph-name="Share-Window" d="M1002.667 21.333h-981.333c-11.776 0-21.333 9.6-21.333 21.333v810.667c0 11.733 9.557 21.333 21.333 21.333h981.333c11.733 0 21.333-9.6 21.333-21.333v-810.667c0-11.733-9.6-21.333-21.333-21.333zM42.667 64h938.667v768h-938.667v-768zM981.333 661.333h-938.667c-11.776 0-21.333 9.6-21.333 21.333s9.557 21.333 21.333 21.333h938.667c11.733 0 21.333-9.6 21.333-21.333s-9.6-21.333-21.333-21.333zM596.651 297.984c-4.651 0-9.344 1.493-13.312 4.523-9.216 7.339-10.709 20.608-3.413 29.952l75.947 95.104-75.093 91.989c-7.509 9.131-6.229 22.571 2.987 30.037 9.173 7.467 22.571 6.144 30.080-3.029l86.016-105.344c6.229-7.851 6.4-18.901 0.171-26.795l-86.656-108.672c-4.309-4.992-10.453-7.765-16.725-7.765zM405.333 170.667c-11.776 0-21.333 9.6-21.333 21.333v57.344c0 109.525 89.131 198.656 198.656 198.656h100.011c11.733 0 21.333-9.6 21.333-21.333s-9.6-21.333-21.333-21.333h-100.011c-86.016 0-155.989-70.016-155.989-155.989v-57.344c0-11.733-9.557-21.333-21.333-21.333zM128 768c0-11.782-9.551-21.333-21.333-21.333s-21.333 9.551-21.333 21.333c0 11.782 9.551 21.333 21.333 21.333s21.333-9.551 21.333-21.333zM213.333 768c0-11.782-9.551-21.333-21.333-21.333s-21.333 9.551-21.333 21.333c0 11.782 9.551 21.333 21.333 21.333s21.333-9.551 21.333-21.333zM298.667 768c0-11.782-9.551-21.333-21.333-21.333s-21.333 9.551-21.333 21.333c0 11.782 9.551 21.333 21.333 21.333s21.333-9.551 21.333-21.333z" />
<glyph unicode="&#xe938;" glyph-name="Sidebar-Window" d="M1002.667 21.333h-981.333c-11.776 0-21.333 9.6-21.333 21.333v810.667c0 11.733 9.557 21.333 21.333 21.333h981.333c11.733 0 21.333-9.6 21.333-21.333v-810.667c0-11.733-9.6-21.333-21.333-21.333zM42.667 64h938.667v768h-938.667v-768zM981.333 661.333h-938.667c-11.776 0-21.333 9.6-21.333 21.333s9.557 21.333 21.333 21.333h938.667c11.733 0 21.333-9.6 21.333-21.333s-9.6-21.333-21.333-21.333zM704 42.667c-11.733 0-21.333 9.6-21.333 21.333v597.333c0 11.733 9.6 21.333 21.333 21.333s21.333-9.6 21.333-21.333v-597.333c0-11.733-9.6-21.333-21.333-21.333zM896 490.667h-85.333c-11.733 0-21.333 9.6-21.333 21.333s9.6 21.333 21.333 21.333h85.333c11.733 0 21.333-9.6 21.333-21.333s-9.6-21.333-21.333-21.333zM896 405.333h-85.333c-11.733 0-21.333 9.6-21.333 21.333s9.6 21.333 21.333 21.333h85.333c11.733 0 21.333-9.6 21.333-21.333s-9.6-21.333-21.333-21.333zM896 320h-85.333c-11.733 0-21.333 9.6-21.333 21.333s9.6 21.333 21.333 21.333h85.333c11.733 0 21.333-9.6 21.333-21.333s-9.6-21.333-21.333-21.333zM896 234.667h-85.333c-11.733 0-21.333 9.6-21.333 21.333s9.6 21.333 21.333 21.333h85.333c11.733 0 21.333-9.6 21.333-21.333s-9.6-21.333-21.333-21.333zM896 149.333h-85.333c-11.733 0-21.333 9.6-21.333 21.333s9.6 21.333 21.333 21.333h85.333c11.733 0 21.333-9.6 21.333-21.333s-9.6-21.333-21.333-21.333zM128 768c0-11.782-9.551-21.333-21.333-21.333s-21.333 9.551-21.333 21.333c0 11.782 9.551 21.333 21.333 21.333s21.333-9.551 21.333-21.333zM213.333 768c0-11.782-9.551-21.333-21.333-21.333s-21.333 9.551-21.333 21.333c0 11.782 9.551 21.333 21.333 21.333s21.333-9.551 21.333-21.333zM298.667 768c0-11.782-9.551-21.333-21.333-21.333s-21.333 9.551-21.333 21.333c0 11.782 9.551 21.333 21.333 21.333s21.333-9.551 21.333-21.333z" />
<glyph unicode="&#xe939;" glyph-name="Split-Four-Square-Window" d="M983.040-64h-942.080c-11.264 0-20.48 9.216-20.48 20.48v983.040c0 11.264 9.216 20.48 20.48 20.48h942.080c11.307 0 20.437-9.216 20.437-20.48v-983.040c0.043-11.264-9.131-20.48-20.437-20.48zM61.44-23.040h901.12v942.080h-901.12v-942.080zM962.56 427.52h-901.12c-11.264 0-20.48 9.216-20.48 20.48s9.216 20.48 20.48 20.48h901.12c11.307 0 20.48-9.216 20.48-20.48s-9.216-20.48-20.48-20.48zM962.56 755.2h-901.12c-11.264 0-20.48 9.216-20.48 20.48s9.216 20.48 20.48 20.48h901.12c11.307 0 20.48-9.216 20.48-20.48s-9.216-20.48-20.48-20.48zM491.52-43.52c-11.264 0-20.48 9.173-20.48 20.437v942.123c0 11.264 9.216 20.48 20.48 20.48s20.48-9.216 20.48-20.48v-942.080c0-11.307-9.216-20.48-20.48-20.48zM962.56 263.68h-901.12c-11.264 0-20.48 9.216-20.48 20.48s9.216 20.437 20.48 20.437h901.12c11.307 0 20.48-9.173 20.48-20.437s-9.216-20.48-20.48-20.48zM143.36 857.6c0-11.311-9.169-20.48-20.48-20.48s-20.48 9.169-20.48 20.48c0 11.311 9.169 20.48 20.48 20.48s20.48-9.169 20.48-20.48zM225.28 857.6c0-11.311-9.169-20.48-20.48-20.48s-20.48 9.169-20.48 20.48c0 11.311 9.169 20.48 20.48 20.48s20.48-9.169 20.48-20.48zM307.2 857.6c0-11.311-9.169-20.48-20.48-20.48s-20.48 9.169-20.48 20.48c0 11.311 9.169 20.48 20.48 20.48s20.48-9.169 20.48-20.48zM593.92 857.6c0-11.311-9.169-20.48-20.48-20.48s-20.48 9.169-20.48 20.48c0 11.311 9.169 20.48 20.48 20.48s20.48-9.169 20.48-20.48zM675.84 857.6c0-11.311-9.169-20.48-20.48-20.48s-20.48 9.169-20.48 20.48c0 11.311 9.169 20.48 20.48 20.48s20.48-9.169 20.48-20.48zM757.76 857.6c0-11.311-9.169-20.48-20.48-20.48s-20.48 9.169-20.48 20.48c0 11.311 9.169 20.48 20.48 20.48s20.48-9.169 20.48-20.48zM593.92 366.080c0-11.311-9.169-20.48-20.48-20.48s-20.48 9.169-20.48 20.48c0 11.311 9.169 20.48 20.48 20.48s20.48-9.169 20.48-20.48zM675.84 366.080c0-11.311-9.169-20.48-20.48-20.48s-20.48 9.169-20.48 20.48c0 11.311 9.169 20.48 20.48 20.48s20.48-9.169 20.48-20.48zM757.76 366.080c0-11.311-9.169-20.48-20.48-20.48s-20.48 9.169-20.48 20.48c0 11.311 9.169 20.48 20.48 20.48s20.48-9.169 20.48-20.48zM143.36 366.080c0-11.311-9.169-20.48-20.48-20.48s-20.48 9.169-20.48 20.48c0 11.311 9.169 20.48 20.48 20.48s20.48-9.169 20.48-20.48zM225.28 366.080c0-11.311-9.169-20.48-20.48-20.48s-20.48 9.169-20.48 20.48c0 11.311 9.169 20.48 20.48 20.48s20.48-9.169 20.48-20.48zM307.2 366.080c0-11.311-9.169-20.48-20.48-20.48s-20.48 9.169-20.48 20.48c0 11.311 9.169 20.48 20.48 20.48s20.48-9.169 20.48-20.48z" />
<glyph unicode="&#xe93a;" glyph-name="Split-Horizontal-2-Window" d="M983.040-64h-942.080c-11.307 0-20.48 9.216-20.48 20.48v983.040c0 11.264 9.173 20.48 20.48 20.48h942.080c11.307 0 20.437-9.216 20.437-20.48v-983.040c0.043-11.264-9.131-20.48-20.437-20.48zM61.44-23.040h901.12v942.080h-901.12v-942.080zM962.56 714.24h-901.12c-11.307 0-20.48 9.216-20.48 20.48s9.173 20.48 20.48 20.48h901.12c11.307 0 20.48-9.216 20.48-20.48s-9.216-20.48-20.48-20.48zM962.56 386.56h-901.12c-11.307 0-20.48 9.216-20.48 20.48s9.173 20.48 20.48 20.48h901.12c11.307 0 20.48-9.173 20.48-20.48s-9.216-20.48-20.48-20.48zM962.56 591.36h-901.12c-11.307 0-20.48 9.216-20.48 20.48s9.173 20.48 20.48 20.48h901.12c11.307 0 20.48-9.216 20.48-20.48s-9.216-20.48-20.48-20.48zM880.64 796.16h-81.92c-11.264 0-20.437 9.216-20.437 20.48s9.216 20.48 20.437 20.48h81.92c11.307 0 20.48-9.216 20.48-20.48s-9.216-20.48-20.48-20.48zM880.64 468.48h-81.92c-11.264 0-20.437 9.216-20.437 20.48s9.216 20.48 20.437 20.48h81.92c11.307 0 20.48-9.216 20.48-20.48s-9.216-20.48-20.48-20.48zM839.68 263.68h-655.36c-11.307 0-20.48 9.216-20.48 20.48s9.173 20.437 20.48 20.437h655.36c11.307 0 20.48-9.173 20.48-20.437s-9.216-20.48-20.48-20.48zM634.88 58.88h-450.56c-11.307 0-20.48 9.216-20.48 20.48s9.173 20.437 20.48 20.437h450.56c11.307 0 20.48-9.216 20.48-20.437 0-11.264-9.173-20.48-20.48-20.48zM634.88 181.76h-450.56c-11.307 0-20.48 9.216-20.48 20.48s9.173 20.437 20.48 20.437h450.56c11.307 0 20.48-9.216 20.48-20.437 0-11.264-9.173-20.48-20.48-20.48z" />
<glyph unicode="&#xe93b;" glyph-name="Split-Horizontal" d="M983.040-64h-942.080c-11.307 0-20.48 9.216-20.48 20.48v983.040c0 11.264 9.173 20.48 20.48 20.48h942.080c11.307 0 20.437-9.216 20.437-20.48v-983.040c0.043-11.264-9.131-20.48-20.437-20.48zM61.44-23.040h901.12v942.080h-901.12v-942.080zM962.56 755.2h-901.12c-11.307 0-20.48 9.216-20.48 20.48s9.173 20.48 20.48 20.48h901.12c11.307 0 20.48-9.216 20.48-20.48s-9.216-20.48-20.48-20.48zM962.56 386.56h-901.12c-11.307 0-20.48 9.216-20.48 20.48s9.173 20.48 20.48 20.48h901.12c11.307 0 20.48-9.173 20.48-20.48s-9.216-20.48-20.48-20.48zM962.56 550.4h-901.12c-11.307 0-20.48 9.216-20.48 20.48s9.173 20.48 20.48 20.48h901.12c11.307 0 20.48-9.216 20.48-20.48s-9.216-20.48-20.48-20.48zM143.36 857.6c0-11.311-9.169-20.48-20.48-20.48s-20.48 9.169-20.48 20.48c0 11.311 9.169 20.48 20.48 20.48s20.48-9.169 20.48-20.48zM225.28 857.6c0-11.311-9.169-20.48-20.48-20.48s-20.48 9.169-20.48 20.48c0 11.311 9.169 20.48 20.48 20.48s20.48-9.169 20.48-20.48zM307.2 857.6c0-11.311-9.169-20.48-20.48-20.48s-20.48 9.169-20.48 20.48c0 11.311 9.169 20.48 20.48 20.48s20.48-9.169 20.48-20.48zM143.36 488.96c0-11.311-9.169-20.48-20.48-20.48s-20.48 9.169-20.48 20.48c0 11.311 9.169 20.48 20.48 20.48s20.48-9.169 20.48-20.48zM225.28 488.96c0-11.311-9.169-20.48-20.48-20.48s-20.48 9.169-20.48 20.48c0 11.311 9.169 20.48 20.48 20.48s20.48-9.169 20.48-20.48zM307.2 488.96c0-11.311-9.169-20.48-20.48-20.48s-20.48 9.169-20.48 20.48c0 11.311 9.169 20.48 20.48 20.48s20.48-9.169 20.48-20.48z" />
<glyph unicode="&#xe93c;" glyph-name="Split-Vertical-2" d="M983.040-64h-942.080c-11.264 0-20.48 9.216-20.48 20.48v983.040c0 11.264 9.216 20.48 20.48 20.48h942.080c11.307 0 20.437-9.216 20.437-20.48v-983.040c0.043-11.264-9.131-20.48-20.437-20.48zM61.44-23.040h901.12v942.080h-901.12v-942.080zM962.56 755.2h-901.12c-11.264 0-20.48 9.216-20.48 20.48s9.216 20.48 20.48 20.48h901.12c11.307 0 20.48-9.216 20.48-20.48s-9.216-20.48-20.48-20.48zM409.6-43.52c-11.264 0-20.48 9.173-20.48 20.437v942.123c0 11.264 9.216 20.48 20.48 20.48s20.48-9.216 20.48-20.48v-942.080c0-11.307-9.216-20.48-20.48-20.48zM143.36 857.6c0-11.311-9.169-20.48-20.48-20.48s-20.48 9.169-20.48 20.48c0 11.311 9.169 20.48 20.48 20.48s20.48-9.169 20.48-20.48zM225.28 857.6c0-11.311-9.169-20.48-20.48-20.48s-20.48 9.169-20.48 20.48c0 11.311 9.169 20.48 20.48 20.48s20.48-9.169 20.48-20.48zM307.2 857.6c0-11.311-9.169-20.48-20.48-20.48s-20.48 9.169-20.48 20.48c0 11.311 9.169 20.48 20.48 20.48s20.48-9.169 20.48-20.48z" />
<glyph unicode="&#xe93d;" glyph-name="Split-Vertical" d="M490.667 21.333h-469.333c-11.776 0-21.333 9.6-21.333 21.333v810.667c0 11.733 9.557 21.333 21.333 21.333h469.333c11.776 0 21.333-9.6 21.333-21.333v-810.667c0-11.733-9.557-21.333-21.333-21.333zM42.667 64h426.667v768h-426.667v-768zM469.333 661.333h-426.667c-11.776 0-21.333 9.6-21.333 21.333s9.557 21.333 21.333 21.333h426.667c11.776 0 21.333-9.6 21.333-21.333s-9.557-21.333-21.333-21.333zM1002.667 21.333h-512c-11.776 0-21.333 9.6-21.333 21.333v810.667c0 11.733 9.557 21.333 21.333 21.333h512c11.733 0 21.333-9.6 21.333-21.333v-810.667c0-11.733-9.6-21.333-21.333-21.333zM512 64h469.333v768h-469.333v-768zM981.333 661.333h-469.333c-11.776 0-21.333 9.6-21.333 21.333s9.557 21.333 21.333 21.333h469.333c11.733 0 21.333-9.6 21.333-21.333s-9.6-21.333-21.333-21.333zM128 768c0-11.782-9.551-21.333-21.333-21.333s-21.333 9.551-21.333 21.333c0 11.782 9.551 21.333 21.333 21.333s21.333-9.551 21.333-21.333zM213.333 768c0-11.782-9.551-21.333-21.333-21.333s-21.333 9.551-21.333 21.333c0 11.782 9.551 21.333 21.333 21.333s21.333-9.551 21.333-21.333zM298.667 768c0-11.782-9.551-21.333-21.333-21.333s-21.333 9.551-21.333 21.333c0 11.782 9.551 21.333 21.333 21.333s21.333-9.551 21.333-21.333zM597.333 768c0-11.782-9.551-21.333-21.333-21.333s-21.333 9.551-21.333 21.333c0 11.782 9.551 21.333 21.333 21.333s21.333-9.551 21.333-21.333zM682.667 768c0-11.782-9.551-21.333-21.333-21.333s-21.333 9.551-21.333 21.333c0 11.782 9.551 21.333 21.333 21.333s21.333-9.551 21.333-21.333zM768 768c0-11.782-9.551-21.333-21.333-21.333s-21.333 9.551-21.333 21.333c0 11.782 9.551 21.333 21.333 21.333s21.333-9.551 21.333-21.333z" />
<glyph unicode="&#xe93e;" glyph-name="Split-Window" d="M490.667-64h-469.333c-11.776 0-21.333 9.6-21.333 21.333v981.333c0 11.733 9.557 21.333 21.333 21.333h469.333c11.776 0 21.333-9.6 21.333-21.333v-981.333c0-11.733-9.557-21.333-21.333-21.333zM42.667-21.333h426.667v938.667h-426.667v-938.667zM469.333 746.667h-426.667c-11.776 0-21.333 9.6-21.333 21.333s9.557 21.333 21.333 21.333h426.667c11.776 0 21.333-9.6 21.333-21.333s-9.557-21.333-21.333-21.333zM1002.667-64h-512c-11.776 0-21.333 9.6-21.333 21.333v981.333c0 11.733 9.557 21.333 21.333 21.333h512c11.733 0 21.333-9.6 21.333-21.333v-981.333c0-11.733-9.6-21.333-21.333-21.333zM512-21.333h469.333v938.667h-469.333v-938.667zM981.333 746.667h-469.333c-11.776 0-21.333 9.6-21.333 21.333s9.557 21.333 21.333 21.333h469.333c11.733 0 21.333-9.6 21.333-21.333s-9.6-21.333-21.333-21.333zM490.667 40.405c-164.693 0-298.667 134.016-298.667 298.667 0 164.523 133.973 298.667 298.667 298.667 11.776 0 21.333-9.685 21.333-21.333 0-11.776-9.557-21.333-21.333-21.333-141.184 0-256-114.816-256-256 0-141.312 114.816-256 256-256 11.776 0 21.333-9.685 21.333-21.333 0-11.776-9.557-21.333-21.333-21.333zM789.333 149.333h-298.667c-11.776 0-21.333 9.6-21.333 21.333v341.333c0 11.733 9.557 21.333 21.333 21.333h298.667c11.733 0 21.333-9.6 21.333-21.333v-341.333c0-11.733-9.6-21.333-21.333-21.333zM512 192h256v298.667h-256v-298.667zM128 853.333c0-11.782-9.551-21.333-21.333-21.333s-21.333 9.551-21.333 21.333c0 11.782 9.551 21.333 21.333 21.333s21.333-9.551 21.333-21.333zM213.333 853.333c0-11.782-9.551-21.333-21.333-21.333s-21.333 9.551-21.333 21.333c0 11.782 9.551 21.333 21.333 21.333s21.333-9.551 21.333-21.333zM298.667 853.333c0-11.782-9.551-21.333-21.333-21.333s-21.333 9.551-21.333 21.333c0 11.782 9.551 21.333 21.333 21.333s21.333-9.551 21.333-21.333zM597.333 853.333c0-11.782-9.551-21.333-21.333-21.333s-21.333 9.551-21.333 21.333c0 11.782 9.551 21.333 21.333 21.333s21.333-9.551 21.333-21.333zM682.667 853.333c0-11.782-9.551-21.333-21.333-21.333s-21.333 9.551-21.333 21.333c0 11.782 9.551 21.333 21.333 21.333s21.333-9.551 21.333-21.333zM768 853.333c0-11.782-9.551-21.333-21.333-21.333s-21.333 9.551-21.333 21.333c0 11.782 9.551 21.333 21.333 21.333s21.333-9.551 21.333-21.333z" />
<glyph unicode="&#xe93f;" glyph-name="Time-Window" d="M1002.667 21.333h-981.333c-11.776 0-21.333 9.6-21.333 21.333v810.667c0 11.733 9.557 21.333 21.333 21.333h981.333c11.733 0 21.333-9.6 21.333-21.333v-810.667c0-11.733-9.6-21.333-21.333-21.333zM42.667 64h938.667v768h-938.667v-768zM981.333 661.333h-938.667c-11.776 0-21.333 9.6-21.333 21.333s9.557 21.333 21.333 21.333h938.667c11.733 0 21.333-9.6 21.333-21.333s-9.6-21.333-21.333-21.333zM496 121.173c-129.408 0-234.667 105.301-234.667 234.667s105.259 234.667 234.667 234.667 234.667-105.301 234.667-234.667-105.259-234.667-234.667-234.667zM496 547.84c-105.856 0-192-86.187-192-192s86.144-192 192-192c105.813 0 192 86.187 192 192s-86.187 192-192 192zM491.051 319.659c-4.224 0-8.405 1.237-12.032 3.712-5.803 3.968-9.301 10.581-9.301 17.621v119.040c0 11.776 9.557 21.333 21.333 21.333s21.333-9.557 21.333-21.333v-87.808l71.723 28.245c10.923 4.395 23.339-1.024 27.648-12.075 4.352-10.923-1.067-23.339-11.989-27.563l-100.907-39.68c-2.517-0.981-5.163-1.493-7.808-1.493zM128 768c0-11.782-9.551-21.333-21.333-21.333s-21.333 9.551-21.333 21.333c0 11.782 9.551 21.333 21.333 21.333s21.333-9.551 21.333-21.333zM213.333 768c0-11.782-9.551-21.333-21.333-21.333s-21.333 9.551-21.333 21.333c0 11.782 9.551 21.333 21.333 21.333s21.333-9.551 21.333-21.333zM298.667 768c0-11.782-9.551-21.333-21.333-21.333s-21.333 9.551-21.333 21.333c0 11.782 9.551 21.333 21.333 21.333s21.333-9.551 21.333-21.333z" />
<glyph unicode="&#xe940;" glyph-name="Touch-Window" d="M1002.667 21.333h-981.333c-11.733 0-21.333 9.6-21.333 21.333v810.667c0 11.733 9.6 21.333 21.333 21.333h981.333c11.733 0 21.333-9.6 21.333-21.333v-810.667c0-11.733-9.6-21.333-21.333-21.333zM42.667 64h938.667v768h-938.667v-768zM981.333 661.333h-938.667c-11.733 0-21.333 9.6-21.333 21.333s9.6 21.333 21.333 21.333h938.667c11.733 0 21.333-9.6 21.333-21.333s-9.6-21.333-21.333-21.333zM512 298.667c-35.285 0-64 28.715-64 64s28.715 64 64 64 64-28.715 64-64-28.715-64-64-64zM512 384c-11.733 0-21.333-9.6-21.333-21.333s9.6-21.333 21.333-21.333 21.333 9.6 21.333 21.333-9.6 21.333-21.333 21.333zM384.768 327.168c-10.667 0-19.968 8.021-21.163 18.901-4.437 39.68 6.912 78.677 31.744 109.824 24.917 31.104 60.501 50.688 100.181 55.168 12.075 0.896 22.229-7.168 23.68-18.816s-7.125-22.229-18.731-23.595c-28.331-3.157-53.845-17.152-71.637-39.424s-25.771-50.091-22.528-78.421c1.152-11.648-7.168-22.229-18.816-23.68-1.152 0.085-1.963 0.043-2.731 0.043zM526.123 214.187c-10.709 0-19.968 8.064-21.163 18.987-1.28 11.648 7.168 22.229 18.859 23.552 28.331 3.115 53.717 17.109 71.509 39.381s25.813 50.091 22.656 78.379c-1.28 11.691 7.083 22.272 18.688 23.637 12.075 1.493 22.229-7.083 23.723-18.731 4.437-39.851-6.912-78.635-31.744-109.781-24.917-31.104-60.501-50.688-100.181-55.125-0.768-0.256-1.536-0.299-2.347-0.299zM309.077 407.083c-2.176 0-4.437 0.341-6.571 0.981-11.221 3.669-17.323 15.659-13.653 26.923 19.243 59.563 60.672 108.16 116.437 136.661 55.893 28.501 119.552 33.579 179.029 14.251 11.264-3.669 17.323-15.659 13.739-26.923-3.669-11.264-15.488-17.408-26.923-13.653-48.896 15.787-100.821 11.648-146.603-11.563-45.653-23.339-79.531-63.104-95.317-111.915-2.816-9.003-11.136-14.763-20.139-14.763zM511.787 128c-23.979 0-48.213 3.712-72.107 11.52-11.264 3.584-17.323 15.659-13.739 26.837 3.669 11.307 15.573 17.28 26.923 13.696 100.651-32.555 209.237 22.699 241.963 123.477 3.627 11.307 15.445 17.323 26.88 13.696 11.221-3.627 17.237-15.659 13.568-26.88-32.171-99.2-124.459-162.347-223.488-162.347zM128 768c0-11.782-9.551-21.333-21.333-21.333s-21.333 9.551-21.333 21.333c0 11.782 9.551 21.333 21.333 21.333s21.333-9.551 21.333-21.333zM213.333 768c0-11.782-9.551-21.333-21.333-21.333s-21.333 9.551-21.333 21.333c0 11.782 9.551 21.333 21.333 21.333s21.333-9.551 21.333-21.333zM298.667 768c0-11.782-9.551-21.333-21.333-21.333s-21.333 9.551-21.333 21.333c0 11.782 9.551 21.333 21.333 21.333s21.333-9.551 21.333-21.333z" />
<glyph unicode="&#xe941;" glyph-name="Two-Windows" d="M746.667-64h-725.333c-11.776 0-21.333 9.6-21.333 21.333v810.667c0 11.733 9.557 21.333 21.333 21.333h725.333c11.733 0 21.333-9.6 21.333-21.333v-810.667c0-11.733-9.6-21.333-21.333-21.333zM42.667-21.333h682.667v768h-682.667v-768zM725.333 576h-682.667c-11.776 0-21.333 9.6-21.333 21.333s9.557 21.333 21.333 21.333h682.667c11.733 0 21.333-9.6 21.333-21.333s-9.6-21.333-21.333-21.333zM128 682.667c0-11.782-9.551-21.333-21.333-21.333s-21.333 9.551-21.333 21.333c0 11.782 9.551 21.333 21.333 21.333s21.333-9.551 21.333-21.333zM213.333 682.667c0-11.782-9.551-21.333-21.333-21.333s-21.333 9.551-21.333 21.333c0 11.782 9.551 21.333 21.333 21.333s21.333-9.551 21.333-21.333zM298.667 682.667c0-11.782-9.551-21.333-21.333-21.333s-21.333 9.551-21.333 21.333c0 11.782 9.551 21.333 21.333 21.333s21.333-9.551 21.333-21.333zM1002.667 192h-234.667c-11.733 0-21.333 9.6-21.333 21.333s9.6 21.333 21.333 21.333h213.333v682.667h-682.667v-128c0-11.733-9.557-21.333-21.333-21.333s-21.333 9.6-21.333 21.333v149.333c0 11.733 9.557 21.333 21.333 21.333h725.333c11.733 0 21.333-9.6 21.333-21.333v-725.333c0-11.733-9.6-21.333-21.333-21.333zM981.333 746.667h-256c-11.733 0-21.333 9.6-21.333 21.333s9.6 21.333 21.333 21.333h256c11.733 0 21.333-9.6 21.333-21.333s-9.6-21.333-21.333-21.333zM384 853.333c0-11.782-9.551-21.333-21.333-21.333s-21.333 9.551-21.333 21.333c0 11.782 9.551 21.333 21.333 21.333s21.333-9.551 21.333-21.333zM469.333 853.333c0-11.782-9.551-21.333-21.333-21.333s-21.333 9.551-21.333 21.333c0 11.782 9.551 21.333 21.333 21.333s21.333-9.551 21.333-21.333zM554.667 853.333c0-11.782-9.551-21.333-21.333-21.333s-21.333 9.551-21.333 21.333c0 11.782 9.551 21.333 21.333 21.333s21.333-9.551 21.333-21.333z" />
<glyph unicode="&#xe942;" glyph-name="Upload-Window" d="M1002.667 64h-981.333c-11.776 0-21.333 9.6-21.333 21.333v725.333c0 11.733 9.557 21.333 21.333 21.333h981.333c11.733 0 21.333-9.6 21.333-21.333v-725.333c0-11.733-9.6-21.333-21.333-21.333zM42.667 106.667h938.667v682.667h-938.667v-682.667zM981.333 576h-938.667c-11.776 0-21.333 9.6-21.333 21.333s9.557 21.333 21.333 21.333h938.667c11.733 0 21.333-9.6 21.333-21.333s-9.6-21.333-21.333-21.333zM170.667 725.333c0-11.782-9.551-21.333-21.333-21.333s-21.333 9.551-21.333 21.333c0 11.782 9.551 21.333 21.333 21.333s21.333-9.551 21.333-21.333zM256 725.333c0-11.782-9.551-21.333-21.333-21.333s-21.333 9.551-21.333 21.333c0 11.782 9.551 21.333 21.333 21.333s21.333-9.551 21.333-21.333zM341.333 725.333c0-11.782-9.551-21.333-21.333-21.333s-21.333 9.551-21.333 21.333c0 11.782 9.551 21.333 21.333 21.333s21.333-9.551 21.333-21.333zM638.208 384c-4.693 0-9.472 1.536-13.355 4.651l-92.416 74.581-92.416-74.581c-9.131-7.339-22.656-6.059-29.995 3.243-7.381 9.173-5.973 22.485 3.2 29.995l105.771 85.333c7.851 6.229 18.901 6.229 26.795 0l105.771-85.333c9.173-7.424 10.581-20.779 3.157-29.995-4.053-5.248-10.283-7.893-16.512-7.893zM533.333 213.333c-11.776 0-21.333 9.6-21.333 21.333v213.333c0 11.733 9.557 21.333 21.333 21.333 11.733 0 21.333-9.6 21.333-21.333v-213.333c0-11.733-9.6-21.333-21.333-21.333z" />
<glyph unicode="&#xe943;" glyph-name="URL-Window" d="M1002.667 21.333h-981.333c-11.776 0-21.333 9.6-21.333 21.333v810.667c0 11.733 9.557 21.333 21.333 21.333h981.333c11.733 0 21.333-9.6 21.333-21.333v-810.667c0-11.733-9.6-21.333-21.333-21.333zM42.667 64h938.667v768h-938.667v-768zM981.333 661.333h-938.667c-11.776 0-21.333 9.6-21.333 21.333s9.557 21.333 21.333 21.333h938.667c11.733 0 21.333-9.6 21.333-21.333s-9.6-21.333-21.333-21.333zM214.187 223.317c-1.664 0-2.816 1.024-2.816 2.773v79.573c0 15.104-7.168 25.173-21.461 25.173-13.739 0-21.803-9.856-21.803-25.173v-79.531c0-1.749-1.109-2.773-2.816-2.773h-34.347c-1.749 0-2.859 1.024-2.859 2.773v189.013c0 1.664 1.109 2.688 2.859 2.688h34.347c1.707 0 2.816-1.024 2.816-2.688v-65.835h0.341c6.272 8.576 18.005 15.659 35.755 15.659 30.635 0 47.232-21.163 47.232-51.499v-87.253c0-1.749-1.152-2.859-2.859-2.859l-34.389-0.043zM327.637 221.653c-32.043 0-44.075 14.336-44.075 46.080v62.933c0 1.152-0.555 1.749-1.707 1.749h-8.576c-1.749 0-2.901 1.152-2.901 2.816v23.765c0 1.749 1.152 2.901 2.901 2.901h8.576c1.152 0 1.707 0.555 1.707 1.664v37.248c0 1.664 1.109 2.688 2.859 2.688h34.048c1.707 0 2.859-1.024 2.859-2.688v-37.248c0-1.109 0.597-1.664 1.707-1.664h17.749c1.707 0 2.859-1.152 2.859-2.901v-23.765c0-1.664-1.152-2.816-2.859-2.816h-17.749c-1.109 0-1.707-0.597-1.707-1.749v-61.269c0-10.24 3.413-13.653 12.587-13.653h6.869c1.707 0 2.859-1.152 2.859-2.901v-28.331c0-1.664-1.152-2.688-2.859-2.688l-15.147-0.171zM416.683 221.653c-32.043 0-44.075 14.336-44.075 46.080v62.933c0 1.152-0.597 1.749-1.707 1.749h-8.576c-1.707 0-2.859 1.152-2.859 2.816v23.765c0 1.749 1.152 2.901 2.859 2.901h8.576c1.109 0 1.707 0.555 1.707 1.664v37.248c0 1.664 1.152 2.688 2.859 2.688h34.048c1.749 0 2.859-1.024 2.859-2.688v-37.248c0-1.109 0.597-1.664 1.707-1.664h17.749c1.749 0 2.816-1.152 2.816-2.901v-23.765c0-1.664-1.067-2.816-2.816-2.816h-17.749c-1.109 0-1.707-0.597-1.707-1.749v-61.269c0-10.24 3.456-13.653 12.587-13.653h6.869c1.749 0 2.816-1.152 2.816-2.901v-28.331c0-1.664-1.067-2.688-2.816-2.688l-15.147-0.171zM461.653 171.819c-1.749 0-2.901 1.024-2.901 2.731v184.149c0 1.749 1.152 2.901 2.901 2.901h34.347c1.707 0 2.816-1.152 2.816-2.901v-9.856h0.341c6.229 9.557 18.005 16.043 36.352 16.043 23.168 0 39.765-11.264 46.933-33.067 3.413-10.837 4.907-21.163 4.907-39.253 0-17.664-1.493-28.245-4.907-39.168-7.168-21.76-23.765-33.152-46.933-33.152-18.347 0-30.080 6.571-36.352 16h-0.341v-61.483c0-1.749-1.109-2.731-2.816-2.731h-34.347v-0.213zM544.085 268.885c1.707 5.461 2.603 11.477 2.603 23.808 0 12.245-0.896 18.432-2.603 23.893-3.157 9.856-10.581 14.976-21.504 14.976-10.581 0-18.005-4.821-21.163-14.976-1.707-5.461-2.603-11.563-2.603-23.893s0.896-18.347 2.603-23.808c3.157-9.728 10.581-14.891 21.163-14.891 10.923 0 18.347 5.163 21.504 14.891zM611.413 324.992v34.005c0 1.749 1.152 2.901 2.816 2.901h34.389c1.707 0 2.859-1.152 2.859-2.901v-34.005c0-1.749-1.152-2.816-2.859-2.816h-34.389c-1.664-0.043-2.816 1.067-2.816 2.816zM611.413 260.565c0 1.749 1.152 2.731 2.816 2.731h34.389c1.707 0 2.859-0.981 2.859-2.731v-34.432c0-1.749-1.152-2.773-2.859-2.773h-34.389c-1.664 0-2.816 1.024-2.816 2.773v34.432zM739.371 418.347c0.597 1.92 1.707 2.816 3.712 2.816h31.147c1.749 0 2.645-1.152 2.005-2.816l-62.336-195.243c-0.64-2.005-1.749-2.688-3.755-2.688h-30.976c-1.664 0-2.56 1.024-2.005 2.688l62.208 195.243zM858.496 418.347c0.597 1.92 1.749 2.816 3.712 2.816h31.189c1.749 0 2.603-1.152 2.005-2.816l-62.421-195.243c-0.597-2.005-1.664-2.688-3.669-2.688h-30.976c-1.749 0-2.645 1.024-2.005 2.688l62.165 195.243zM128 768c0-11.782-9.551-21.333-21.333-21.333s-21.333 9.551-21.333 21.333c0 11.782 9.551 21.333 21.333 21.333s21.333-9.551 21.333-21.333zM213.333 768c0-11.782-9.551-21.333-21.333-21.333s-21.333 9.551-21.333 21.333c0 11.782 9.551 21.333 21.333 21.333s21.333-9.551 21.333-21.333zM298.667 768c0-11.782-9.551-21.333-21.333-21.333s-21.333 9.551-21.333 21.333c0 11.782 9.551 21.333 21.333 21.333s21.333-9.551 21.333-21.333z" />
<glyph unicode="&#xe944;" glyph-name="Warning-Window" d="M1002.667 21.333h-981.333c-11.776 0-21.333 9.6-21.333 21.333v810.667c0 11.733 9.557 21.333 21.333 21.333h981.333c11.733 0 21.333-9.6 21.333-21.333v-810.667c0-11.733-9.6-21.333-21.333-21.333zM42.667 64h938.667v768h-938.667v-768zM981.333 661.333h-938.667c-11.776 0-21.333 9.6-21.333 21.333s9.557 21.333 21.333 21.333h938.667c11.733 0 21.333-9.6 21.333-21.333s-9.6-21.333-21.333-21.333zM533.333 277.333h-42.667c-10.155 0-18.901 7.168-20.907 17.152l-42.667 213.333c-1.237 6.229 0.384 12.757 4.437 17.664 4.053 4.949 10.112 7.851 16.512 7.851h128c6.357 0 12.459-2.816 16.555-7.851 4.011-4.907 5.675-11.563 4.437-17.664l-42.667-213.333c-2.133-9.984-10.88-17.152-21.035-17.152zM508.16 320h7.723l34.133 170.667h-75.947l34.091-170.667zM512 125.312c-35.285 0-64 28.672-64 64 0 35.243 28.715 64 64 64s64-28.757 64-64c0-35.328-28.715-64-64-64zM512 210.645c-11.776 0-21.333-9.728-21.333-21.333 0-11.733 9.557-21.333 21.333-21.333s21.333 9.6 21.333 21.333c0 11.733-9.557 21.333-21.333 21.333zM128 768c0-11.782-9.551-21.333-21.333-21.333s-21.333 9.551-21.333 21.333c0 11.782 9.551 21.333 21.333 21.333s21.333-9.551 21.333-21.333zM213.333 768c0-11.782-9.551-21.333-21.333-21.333s-21.333 9.551-21.333 21.333c0 11.782 9.551 21.333 21.333 21.333s21.333-9.551 21.333-21.333zM298.667 768c0-11.782-9.551-21.333-21.333-21.333s-21.333 9.551-21.333 21.333c0 11.782 9.551 21.333 21.333 21.333s21.333-9.551 21.333-21.333z" />
<glyph unicode="&#xe945;" glyph-name="Width-Window" d="M1002.667 21.333h-981.333c-11.776 0-21.333 9.6-21.333 21.333v810.667c0 11.733 9.557 21.333 21.333 21.333h981.333c11.733 0 21.333-9.6 21.333-21.333v-810.667c0-11.733-9.6-21.333-21.333-21.333zM42.667 64h938.667v768h-938.667v-768zM981.333 661.333h-938.667c-11.776 0-21.333 9.6-21.333 21.333s9.557 21.333 21.333 21.333h938.667c11.733 0 21.333-9.6 21.333-21.333s-9.6-21.333-21.333-21.333zM725.333 277.333h-469.333c-11.776 0-21.333 9.6-21.333 21.333s9.557 21.333 21.333 21.333h469.333c11.733 0 21.333-9.6 21.333-21.333s-9.6-21.333-21.333-21.333zM298.667 215.424c-5.931 0-11.819 2.517-16.043 7.296l-54.229 61.909c-6.955 7.979-7.083 19.797-0.213 27.776l54.229 64c7.595 8.917 21.077 10.027 30.080 2.56 8.96-7.637 10.112-21.077 2.475-30.080l-42.325-49.963 42.112-48.128c7.765-8.832 6.869-22.272-1.963-30.080-4.139-3.541-9.131-5.291-14.123-5.291zM725.333 213.333c-4.437 0-8.875 1.365-12.715 4.267-9.472 6.997-11.392 20.437-4.395 29.824l38.229 51.243-38.187 51.243c-6.997 9.6-5.077 22.827 4.395 29.909 9.472 6.997 22.784 5.077 29.867-4.437l47.659-64c5.675-7.595 5.675-17.92 0-25.515l-47.659-64c-4.267-5.632-10.709-8.533-17.195-8.533zM149.333 213.333c-11.776 0-21.333 9.6-21.333 21.333v128c0 11.733 9.557 21.333 21.333 21.333s21.333-9.6 21.333-21.333v-128c0-11.733-9.557-21.333-21.333-21.333zM874.667 213.333c-11.733 0-21.333 9.6-21.333 21.333v128c0 11.733 9.6 21.333 21.333 21.333s21.333-9.6 21.333-21.333v-128c0-11.733-9.6-21.333-21.333-21.333zM128 768c0-11.782-9.551-21.333-21.333-21.333s-21.333 9.551-21.333 21.333c0 11.782 9.551 21.333 21.333 21.333s21.333-9.551 21.333-21.333zM213.333 768c0-11.782-9.551-21.333-21.333-21.333s-21.333 9.551-21.333 21.333c0 11.782 9.551 21.333 21.333 21.333s21.333-9.551 21.333-21.333zM298.667 768c0-11.782-9.551-21.333-21.333-21.333s-21.333 9.551-21.333 21.333c0 11.782 9.551 21.333 21.333 21.333s21.333-9.551 21.333-21.333z" />
<glyph unicode="&#xe946;" glyph-name="Window-2" d="M1002.667 64h-981.333c-11.776 0-21.333 9.6-21.333 21.333v725.333c0 11.733 9.557 21.333 21.333 21.333h981.333c11.733 0 21.333-9.6 21.333-21.333v-725.333c0-11.733-9.6-21.333-21.333-21.333zM42.667 106.667h938.667v682.667h-938.667v-682.667zM981.333 618.667h-938.667c-11.776 0-21.333 9.6-21.333 21.333s9.557 21.333 21.333 21.333h938.667c11.733 0 21.333-9.6 21.333-21.333s-9.6-21.333-21.333-21.333zM170.667 725.333c0-11.782-9.551-21.333-21.333-21.333s-21.333 9.551-21.333 21.333c0 11.782 9.551 21.333 21.333 21.333s21.333-9.551 21.333-21.333zM256 725.333c0-11.782-9.551-21.333-21.333-21.333s-21.333 9.551-21.333 21.333c0 11.782 9.551 21.333 21.333 21.333s21.333-9.551 21.333-21.333zM341.333 725.333c0-11.782-9.551-21.333-21.333-21.333s-21.333 9.551-21.333 21.333c0 11.782 9.551 21.333 21.333 21.333s21.333-9.551 21.333-21.333z" />
<glyph unicode="&#xe947;" glyph-name="Windows-2" d="M832 0h-810.667c-11.776 0-21.333 9.6-21.333 21.333v682.667c0 11.733 9.557 21.333 21.333 21.333h810.667c11.733 0 21.333-9.6 21.333-21.333v-682.667c0-11.733-9.6-21.333-21.333-21.333zM42.667 42.667h768v640h-768v-640zM917.333 85.333h-64c-11.733 0-21.333 9.6-21.333 21.333s9.6 21.333 21.333 21.333h42.667v640h-768v-42.667c0-11.733-9.557-21.333-21.333-21.333s-21.333 9.6-21.333 21.333v64c0 11.733 9.557 21.333 21.333 21.333h810.667c11.733 0 21.333-9.6 21.333-21.333v-682.667c0-11.733-9.6-21.333-21.333-21.333zM1002.667 170.667h-64c-11.733 0-21.333 9.6-21.333 21.333s9.6 21.333 21.333 21.333h42.667v640h-768v-42.667c0-11.733-9.557-21.333-21.333-21.333s-21.333 9.6-21.333 21.333v64c0 11.733 9.557 21.333 21.333 21.333h810.667c11.733 0 21.333-9.6 21.333-21.333v-682.667c0-11.733-9.6-21.333-21.333-21.333zM810.667 512h-768c-11.776 0-21.333 9.6-21.333 21.333s9.557 21.333 21.333 21.333h768c11.733 0 21.333-9.6 21.333-21.333s-9.6-21.333-21.333-21.333z" />
<glyph unicode="&#xe94e;" glyph-name="Cloud-Sun" d="M817.024 562.645c-8.363 0-16.427 5.077-19.755 13.355-39.381 97.152-132.523 160-237.355 160-53.547 0-104.832-16.341-148.224-47.232-9.557-6.784-22.869-4.565-29.696 4.992-6.869 9.643-4.608 22.912 4.992 29.696 50.645 36.139 110.464 55.211 172.928 55.211 122.325 0 230.997-73.259 276.907-186.667 4.437-10.88-0.853-23.296-11.733-27.733-2.645-1.067-5.333-1.621-8.064-1.621zM559.915 821.333c-11.776 0-21.333 9.6-21.333 21.333v85.333c0 11.733 9.557 21.333 21.333 21.333 11.733 0 21.333-9.6 21.333-21.333v-85.333c0-11.733-9.6-21.333-21.333-21.333zM1007.915 458.667h-85.333c-11.776 0-21.333 9.6-21.333 21.333s9.557 21.333 21.333 21.333h85.333c11.733 0 21.333-9.6 21.333-21.333s-9.6-21.333-21.333-21.333zM287.829 709.419c-5.461 0-10.923 2.091-15.104 6.229l-59.776 59.691c-8.32 8.235-8.32 21.931 0 30.165s21.845 8.235 30.165 0l59.776-59.691c8.32-8.32 8.32-21.973 0-30.165-4.224-4.139-9.643-6.229-15.061-6.229zM816.896 724.48c-5.461 0-10.923 2.091-15.104 6.229-8.277 8.277-8.277 21.888 0 30.165l44.757 44.715c8.32 8.32 21.845 8.32 30.165 0s8.32-21.845 0-30.165l-44.757-44.715c-4.181-4.139-9.643-6.229-15.061-6.229zM713.771-53.333h-384.896c-181.077 0-334.080 159.829-334.080 349.099 0 189.312 152.96 349.141 334.080 349.141 111.317 0 212.821-54.059 275.328-145.365 35.157 16.768 71.979 25.131 109.568 25.131 141.952 0 261.931-126.891 261.931-276.779-0.043-139.477-114.432-301.227-261.931-301.227zM328.875 602.069c-157.952 0-291.413-140.331-291.413-306.517s133.419-306.517 291.413-306.517h384.896c123.52 0 219.264 138.837 219.264 258.432 0 124.757-102.485 234.069-219.264 234.069-36.651 0-72.491-9.771-106.624-28.928l-18.048-10.155-10.667 17.749c-53.333 88.96-146.645 141.867-249.557 141.867z" />
<glyph unicode="&#xe94f;" glyph-name="Cloud-Weather" d="M740.48 98.901h-384.896c-181.077 0-334.037 159.829-334.037 349.056 0 189.312 152.96 349.141 334.037 349.141 111.317 0 212.821-54.059 275.328-145.365 35.157 16.768 72.021 25.131 109.611 25.131 141.952 0 261.888-126.891 261.888-276.779 0-139.435-114.389-301.184-261.931-301.184zM355.584 754.304c-157.952 0-291.371-140.331-291.371-306.517 0-166.144 133.419-306.475 291.371-306.475h384.896c123.52 0 219.264 138.837 219.264 258.432 0 124.715-102.485 234.069-219.264 234.069-36.651 0-72.491-9.771-106.581-28.928l-18.048-10.155-10.667 17.749c-53.333 88.917-146.645 141.824-249.6 141.824z" />
<glyph unicode="&#xe950;" glyph-name="Clouds-Weather" horiz-adv-x="1056" d="M636.032 235.435h-214.059c-104.021 0-195.285 99.413-195.285 212.565 0 113.195 91.307 212.565 195.285 212.565 62.379 0 119.552-29.184 156.288-78.549 18.688 7.893 38.101 11.563 57.771 11.563 88.747 0 155.136-91.093 155.136-172.501-0.043-85.76-67.797-185.643-155.136-185.643zM421.973 618.027c-87.339 0-152.619-89.771-152.619-169.941 0-80.256 65.28-169.813 152.619-169.813h214.101c60.544 0 112.469 78.891 112.469 143.104 0 59.989-49.109 129.835-112.469 129.835-18.688 0-37.077-4.992-54.699-14.891l-18.048-10.112-10.667 17.749c-27.989 46.379-76.843 74.069-130.688 74.069zM228.053 235.435h-89.685c-78.293 0-139.008 89.771-139.008 166.912 0 80.811 64.896 151.595 139.008 151.595 25.515 0 48.299-5.589 67.712-16.512 10.283-5.845 13.909-18.731 8.064-29.099-5.803-10.24-18.773-13.909-29.056-8.064-13.141 7.424-28.459 11.008-46.763 11.008-55.125 0-96.341-57.6-96.341-109.013 0-54.741 45.355-124.16 96.341-124.16h89.685c11.776 0 21.333-9.685 21.333-21.333 0.043-11.776-9.515-21.333-21.291-21.333zM917.504 235.435h-134.741c-11.733 0-21.333 9.643-21.333 21.333 0 11.733 9.6 21.333 21.333 21.333h134.741c50.944 0 96.341 69.504 96.341 124.245 0 51.371-41.216 108.928-96.341 108.928-18.389 0-33.621-3.584-46.805-11.008l-18.133-10.027-10.667 17.749c-11.776 19.712-34.944 36.437-64.939 47.061-11.179 3.883-16.939 16.043-13.141 27.179 3.968 11.093 16.128 16.981 27.307 13.099 23.552-8.192 54.144-23.339 76.16-49.579 15.104 5.589 32 8.405 50.219 8.405 74.027 0 139.008-70.827 139.008-151.637 0-77.355-60.757-167.083-139.008-167.083z" />
<glyph unicode="&#xe951;" glyph-name="Drop" d="M416.043-52.907c-96.555 0-174.763 33.323-226.133 96.341-58.752 72.064-77.355 178.731-52.309 300.203 27.051 131.243 123.733 276.139 217.344 416.213 14.677 22.016 29.227 43.733 43.264 65.067 3.925 6.059 10.667 9.685 17.835 9.685v0c7.168 0 13.909-3.627 17.835-9.685 14.080-21.419 28.629-43.349 43.392-65.28 93.44-140.032 190.165-284.843 217.173-416 25.045-121.557 6.443-228.139-52.352-300.203-51.328-63.104-129.536-96.341-226.048-96.341zM416.043 774.571c-8.448-12.757-16.939-25.557-25.6-38.315-91.349-136.704-185.728-278.187-211.029-400.981-22.4-108.672-6.912-202.667 43.563-264.661 42.965-52.693 109.696-80.725 192.981-80.725s150.016 27.776 193.024 80.725c50.517 61.995 65.963 155.861 43.563 264.661-25.344 123.008-119.68 264.149-210.816 400.896-8.619 12.672-17.237 25.6-25.685 38.4zM295.808 108.331c-6.229 0-12.373 2.688-16.597 7.893-36.437 44.715-46.677 117.248-28.757 204.117 2.389 11.563 13.483 19.413 25.216 16.683 11.563-2.432 18.944-13.525 16.64-25.173-15.275-74.027-8.149-134.101 20.053-168.661 7.424-9.173 6.059-22.443-3.072-29.995-4.011-3.285-8.789-4.864-13.483-4.864zM644.608 64.085c-10.837 0-20.139 8.149-21.205 19.2-1.152 11.691 7.381 22.229 19.115 23.339 71.168 7.125 128.171 37.205 164.779 87.083 45.397 61.696 58.667 152.832 37.333 256.469-25.344 123.093-119.68 264.32-210.859 400.939-8.661 12.971-17.237 25.771-25.771 38.528-8.576-13.056-17.28-25.941-26.027-39.083-29.995-45.056-60.672-90.923-89.216-136.832-6.229-9.941-19.371-13.184-29.355-6.912-10.027 6.229-13.141 19.413-6.869 29.355 28.8 46.336 59.691 92.715 89.941 137.899 14.848 22.229 29.483 44.245 43.648 65.92 7.936 11.904 27.776 11.904 35.669 0 14.080-21.504 28.629-43.349 43.392-65.237 93.44-140.032 190.208-284.843 217.216-416.043 23.851-115.627 7.936-218.752-44.715-290.475-43.989-59.733-111.403-95.829-194.944-104.107-0.683 0-1.451-0.043-2.133-0.043z" />
<glyph unicode="&#xe952;" glyph-name="Dry" d="M787.285-53.675h-469.333c-8.875 0-16.896 5.504-19.968 13.824l-128 341.333c-2.517 6.485-1.536 13.909 2.432 19.669 4.011 5.76 10.539 9.173 17.536 9.173h725.333c6.997 0 13.483-3.413 17.536-9.173 3.968-5.76 4.864-13.184 2.432-19.669l-128-341.333c-3.115-8.32-11.093-13.824-19.968-13.824zM332.757-11.008h439.765l112 298.667h-663.765l112-298.667zM333.397 387.499c-89.941 0-188.16 45.227-234.667 69.675-8.704 4.608-13.184 14.635-10.709 24.192 2.517 9.557 10.24 14.72 21.12 16 0.896-0.085 1.749-0.085 2.645-0.085 52.651 0 100.309 34.176 193.621 101.163 48.64 34.773 109.739 45.44 172.245 29.909 49.707-12.416 96.384-40.832 119.040-72.32 6.827-9.6 4.608-22.869-4.907-29.739-9.685-6.827-22.912-4.48-29.781 4.821-13.525 18.901-48.896 44.416-94.677 55.936-35.413 8.661-88.021 11.989-136.832-23.083-66.475-47.659-111.445-79.915-153.301-96.469 80.299-33.024 169.771-51.584 225.92-22.528 35.84 18.688 56.747 55.083 63.829 111.104 1.451 11.691 12.544 19.84 23.851 18.56 11.691-1.408 19.968-12.16 18.517-23.893-8.875-70.059-37.931-118.272-86.357-143.616-27.221-14.037-57.856-19.627-89.557-19.627zM681.387 654.635c-22.955 0-44.373 4.437-61.653 15.829-21.632 14.336-34.091 37.419-36.949 68.48-1.067 11.733 7.552 22.187 19.285 23.253 11.477 1.067 22.144-7.552 23.211-19.243 1.664-18.005 7.595-30.037 18.048-36.992 24.832-16.427 73.899-6.997 116.011 4.736-22.4 16.683-45.653 41.003-76.587 73.557-45.696 48.085-120.405 26.325-140.843 6.827-8.533-8.021-22.101-7.808-30.165 0.811-8.107 8.661-7.851 22.144 0.768 30.165 34.475 32.896 136.661 59.477 201.173-8.235 51.115-53.675 76.8-80.683 108.8-86.101 9.771-1.664 17.024-9.771 17.749-19.669 0.683-9.813-5.632-18.773-15.104-21.845l-15.104-4.651c-36.651-11.563-85.376-26.923-128.64-26.923zM561.323 287.659c-1.067 0-2.176 0.085-3.243 0.256-11.648 1.749-19.627 12.672-17.835 24.235 44.032 288.384 3.541 502.187-108.373 572.16-58.624 36.437-131.371 28.672-204.885-22.229-14.165-9.771-21.845-28.8-20.608-50.859 1.365-24.235 13.184-45.909 30.123-55.083 35.072-18.731 66.603-22.443 86.272-10.069 11.989 7.509 18.773 20.48 18.304 35.115-0.512 11.648 8.747 21.675 20.48 22.229 11.435-0.256 21.675-8.747 22.187-20.48 1.109-29.952-13.227-57.216-38.272-72.875-19.499-12.203-62.208-27.264-129.152 8.747-30.208 16.256-50.347 50.731-52.523 90.24-2.048 36.949 12.459 70.101 38.912 88.32 87.125 60.331 178.773 68.907 251.733 23.253 128.725-80.341 175.275-304.427 127.915-614.656-1.579-10.795-10.667-18.304-21.035-18.304z" />
<glyph unicode="&#xe953;" glyph-name="Fahrenheit" d="M341.333 35.413c-70.571 0-128 57.429-128 128s57.429 128 128 128 128-57.429 128-128-57.429-128-128-128zM341.333 248.747c-47.104 0-85.333-38.229-85.333-85.333s38.229-85.333 85.333-85.333 85.333 38.229 85.333 85.333-38.229 85.333-85.333 85.333zM341.333 271.829c-11.733 0-21.333 9.6-21.333 21.333v256c0 11.733 9.6 21.333 21.333 21.333s21.333-9.6 21.333-21.333v-256c0-11.733-9.6-21.333-21.333-21.333zM341.333-49.92c-117.632 0-213.333 95.659-213.333 213.333 0 76.331 40.533 145.664 106.667 183.936v491.904c0 58.837 47.829 106.667 106.667 106.667s106.667-47.829 106.667-106.667v-491.947c66.133-38.229 106.667-107.563 106.667-183.936 0-117.632-95.701-213.291-213.333-213.291zM341.333 903.253c-35.285 0-64-28.715-64-64v-504.747c0-8.021-4.565-15.403-11.733-18.987-58.581-29.269-94.933-87.509-94.933-152.021 0-94.165 76.544-170.667 170.667-170.667s170.667 76.501 170.667 170.667c0 64.683-36.352 122.837-94.933 152.021-7.168 3.584-11.733 10.965-11.733 18.987v504.747c0 35.328-28.715 64-64 64zM605.355 714.496c-35.243 0-64 28.715-64 64s28.757 64 64 64c35.328 0 64-28.715 64-64s-28.672-64-64-64zM605.355 799.829c-11.605 0-21.333-9.6-21.333-21.333s9.728-21.333 21.333-21.333c11.733 0 21.333 9.6 21.333 21.333s-9.6 21.333-21.333 21.333zM725.333 442.496c-11.733 0-21.333 9.6-21.333 21.333v277.333c0 11.733 9.6 21.333 21.333 21.333h149.333c11.733 0 21.333-9.6 21.333-21.333s-9.6-21.333-21.333-21.333h-128v-256c0-11.776-9.6-21.333-21.333-21.333zM789.333 591.829h-42.667c-11.733 0-21.333 9.6-21.333 21.333s9.6 21.333 21.333 21.333h42.667c11.733 0 21.333-9.6 21.333-21.333s-9.6-21.333-21.333-21.333z" />
<glyph unicode="&#xe973;" glyph-name="Windsock" d="M21.333-42.667c-11.733 0-21.333 9.6-21.333 21.333v938.667c0 11.733 9.6 21.333 21.333 21.333s21.333-9.6 21.333-21.333v-938.667c0-11.733-9.6-21.333-21.333-21.333zM106.667 405.333c-5.291 0-10.411 1.963-14.336 5.547-4.395 4.053-6.997 9.771-6.997 15.787v469.333c0 6.016 2.603 11.733 6.997 15.787s9.899 5.973 16.384 5.461l896-85.333c10.965-0.981 19.285-10.24 19.285-21.248v-298.667c0-11.008-8.32-20.267-19.285-21.248l-896-85.333c-0.725-0.085-1.365-0.085-2.048-0.085zM128 872.533v-422.357l853.333 81.237v259.84l-853.333 81.28zM234.667 426.667c-11.733 0-21.333 9.6-21.333 21.333v426.667c0 11.733 9.6 21.333 21.333 21.333s21.333-9.6 21.333-21.333v-426.667c0-11.733-9.6-21.333-21.333-21.333zM341.333 874.667h42.667v-426.667h-42.667v426.667zM469.333 874.667h42.667v-426.667h-42.667v426.667zM597.333 832h42.667v-341.333h-42.667v341.333zM725.333 832h42.667v-341.333h-42.667v341.333zM853.333 832h42.667v-341.333h-42.667v341.333z" />
<glyph unicode="&#xe97e;" glyph-name="Film-Video" d="M1002.667-64h-981.333c-11.776 0-21.333 9.6-21.333 21.333v981.333c0 11.733 9.557 21.333 21.333 21.333h981.333c11.733 0 21.333-9.6 21.333-21.333v-981.333c0-11.733-9.6-21.333-21.333-21.333zM42.667-21.333h938.667v938.667h-938.667v-938.667zM938.667 832h-42.667c-11.733 0-21.333 9.6-21.333 21.333s9.6 21.333 21.333 21.333h42.667c11.733 0 21.333-9.6 21.333-21.333s-9.6-21.333-21.333-21.333zM682.667 832h-42.667c-11.733 0-21.333 9.6-21.333 21.333s9.6 21.333 21.333 21.333h42.667c11.733 0 21.333-9.6 21.333-21.333s-9.6-21.333-21.333-21.333zM426.667 832h-42.667c-11.776 0-21.333 9.6-21.333 21.333s9.557 21.333 21.333 21.333h42.667c11.776 0 21.333-9.6 21.333-21.333s-9.557-21.333-21.333-21.333zM170.667 832h-42.667c-11.776 0-21.333 9.6-21.333 21.333s9.557 21.333 21.333 21.333h42.667c11.776 0 21.333-9.6 21.333-21.333s-9.557-21.333-21.333-21.333zM938.667 21.333h-42.667c-11.733 0-21.333 9.6-21.333 21.333s9.6 21.333 21.333 21.333h42.667c11.733 0 21.333-9.6 21.333-21.333s-9.6-21.333-21.333-21.333zM682.667 21.333h-42.667c-11.733 0-21.333 9.6-21.333 21.333s9.6 21.333 21.333 21.333h42.667c11.733 0 21.333-9.6 21.333-21.333s-9.6-21.333-21.333-21.333zM426.667 21.333h-42.667c-11.776 0-21.333 9.6-21.333 21.333s9.557 21.333 21.333 21.333h42.667c11.776 0 21.333-9.6 21.333-21.333s-9.557-21.333-21.333-21.333zM170.667 21.333h-42.667c-11.776 0-21.333 9.6-21.333 21.333s9.557 21.333 21.333 21.333h42.667c11.776 0 21.333-9.6 21.333-21.333s-9.557-21.333-21.333-21.333zM704 234.667h-384c-11.776 0-21.333 9.6-21.333 21.333v384c0 11.733 9.557 21.333 21.333 21.333h384c11.733 0 21.333-9.6 21.333-21.333v-384c0-11.733-9.6-21.333-21.333-21.333zM341.333 277.333h341.333v341.333h-341.333v-341.333zM981.333 234.667h-149.333c-11.733 0-21.333 9.6-21.333 21.333v384c0 11.733 9.6 21.333 21.333 21.333h149.333c11.733 0 21.333-9.6 21.333-21.333s-9.6-21.333-21.333-21.333h-128v-341.333h128c11.733 0 21.333-9.6 21.333-21.333s-9.6-21.333-21.333-21.333zM192 234.667h-149.333c-11.776 0-21.333 9.6-21.333 21.333s9.557 21.333 21.333 21.333h128v341.333h-128c-11.776 0-21.333 9.6-21.333 21.333s9.557 21.333 21.333 21.333h149.333c11.776 0 21.333-9.6 21.333-21.333v-384c0-11.733-9.557-21.333-21.333-21.333zM981.333 746.667h-938.667c-11.776 0-21.333 9.6-21.333 21.333s9.557 21.333 21.333 21.333h938.667c11.733 0 21.333-9.6 21.333-21.333s-9.6-21.333-21.333-21.333zM981.333 106.667h-938.667c-11.776 0-21.333 9.6-21.333 21.333s9.557 21.333 21.333 21.333h938.667c11.733 0 21.333-9.6 21.333-21.333s-9.6-21.333-21.333-21.333z" />
<glyph unicode="&#xe97f;" glyph-name="Film" d="M925.867-54.315h-725.333c-11.776 0-21.333 9.6-21.333 21.333v426.667c0 11.733 9.557 21.333 21.333 21.333h725.333c11.733 0 21.333-9.6 21.333-21.333v-426.667c0-11.776-9.557-21.333-21.333-21.333zM221.867-11.648h682.667v384h-682.667v-384zM904.533 244.352h-682.667c-11.776 0-21.333 9.6-21.333 21.333s9.557 21.333 21.333 21.333h682.667c11.733 0 21.333-9.6 21.333-21.333s-9.557-21.333-21.333-21.333zM200.533 372.352c-2.005 0-4.011 0.299-6.059 0.896-5.419 1.579-9.941 5.248-12.715 10.112l-102.315 187.221c-5.675 10.325-1.877 23.339 8.491 29.013l636.373 348.075c4.949 2.731 10.752 3.413 16.256 1.749 5.419-1.579 9.941-5.248 12.715-10.155l102.315-187.221c5.675-10.325 1.877-23.296-8.491-28.971l-636.373-348.075c-3.115-1.749-6.656-2.645-10.197-2.645zM127.104 572.331l81.92-149.76 598.869 327.637-81.877 149.76-598.912-327.637zM178.304 457.429c-7.552 0-14.848 4.011-18.688 11.093-5.675 10.325-1.877 23.296 8.491 29.013l598.869 327.68c10.325 5.632 23.296 1.835 28.971-8.448 5.675-10.325 1.877-23.296-8.491-29.056l-598.955-327.68c-3.2-1.792-6.699-2.603-10.197-2.603zM221.867 265.685c-5.547 0-11.051 2.133-15.232 6.4-8.192 8.32-8.064 21.931 0.299 30.165l85.333 83.584c8.448 8.064 21.973 8.064 30.208-0.341s8.107-22.016-0.299-30.165l-85.333-83.584c-4.224-4.053-9.6-6.059-14.976-6.059zM349.867 265.685c-5.547 0-11.051 2.133-15.232 6.4-8.192 8.32-8.064 21.931 0.299 30.165l85.333 83.584c8.448 8.064 21.973 8.064 30.208-0.341s8.107-22.016-0.299-30.165l-85.333-83.584c-4.224-4.053-9.6-6.059-14.976-6.059zM477.867 265.685c-5.547 0-11.051 2.133-15.232 6.4-8.192 8.32-8.064 21.931 0.299 30.165l85.333 83.584c8.448 8.064 21.973 8.064 30.208-0.341s8.107-22.016-0.299-30.165l-85.333-83.584c-4.224-4.053-9.6-6.059-14.976-6.059zM605.867 265.685c-5.547 0-11.051 2.133-15.232 6.4-8.192 8.32-8.064 21.931 0.299 30.165l85.333 83.584c8.448 8.064 21.973 8.064 30.208-0.341s8.107-22.016-0.299-30.165l-85.333-83.584c-4.224-4.053-9.6-6.059-14.976-6.059zM733.867 265.685c-5.547 0-11.051 2.133-15.232 6.4-8.192 8.32-8.064 21.931 0.299 30.165l85.333 83.584c8.448 8.064 21.973 8.064 30.208-0.341s8.107-22.016-0.299-30.165l-85.333-83.584c-4.224-4.053-9.6-6.059-14.976-6.059zM861.867 265.685c-5.547 0-11.051 2.133-15.232 6.4-8.192 8.32-8.064 21.931 0.299 30.165l42.667 41.771c8.448 8.149 21.973 8.064 30.208-0.341s8.107-21.931-0.299-30.165l-42.667-41.771c-4.224-4.053-9.6-6.059-14.976-6.059zM541.867 21.077c-3.669 0-7.381 0.939-10.667 2.816-6.613 3.84-10.667 10.88-10.667 18.517v147.84c0 7.723 4.053 14.763 10.667 18.517 6.528 3.883 14.763 3.883 21.333 0l128-73.813c6.613-3.755 10.667-10.837 10.667-18.517s-4.053-14.763-10.667-18.517l-128-73.899c-3.285-1.963-6.997-2.944-10.667-2.944zM563.2 153.301v-73.856l64 36.907-64 36.949z" />
</font>
</defs>
</svg>
